/* XPM */
static char *a7a563852cb14238d11c69e1ce09bbf9wKOeUulqRIlpZiAq[] = {
/* columns rows colors chars-per-pixel */
"64 64 222 2 ",
"   c None",
".  c #151A2D",
"X  c #181D2F",
"o  c #181F30",
"O  c #1C2435",
"+  c #1F2A3A",
"@  c #19212E",
"#  c #292A33",
"$  c #222E3C",
"%  c #232833",
"&  c #26313E",
"*  c #2C343E",
"=  c #393638",
"-  c #2E2D35",
";  c #483C3D",
":  c #344532",
">  c #1B782D",
",  c #484638",
"<  c #54473E",
"1  c #4E5434",
"2  c #565638",
"3  c #645C3D",
"4  c #5F6735",
"5  c #69693A",
"6  c #727838",
"7  c #2A3641",
"8  c #2D3A44",
"9  c #2D3D4A",
"0  c #263442",
"q  c #323C45",
"w  c #393D43",
"e  c #4D3F40",
"r  c #2E414D",
"t  c #33424B",
"y  c #3A4549",
"u  c #3C494E",
"i  c #374348",
"p  c #354952",
"a  c #3B4D53",
"s  c #344A56",
"d  c #3C5156",
"f  c #3C535B",
"g  c #2F4754",
"h  c #3B5862",
"j  c #494744",
"k  c #594843",
"l  c #49544B",
"z  c #5A5448",
"x  c #42565A",
"c  c #445A5D",
"v  c #485C5D",
"b  c #435256",
"n  c #5A5E56",
"m  c #654E47",
"M  c #6D5445",
"N  c #665847",
"B  c #755A48",
"V  c #6B654B",
"C  c #7C624A",
"Z  c #7B6749",
"A  c #656759",
"S  c #756E51",
"D  c #445D62",
"F  c #485F61",
"G  c #435B65",
"H  c #4B6364",
"J  c #46646C",
"K  c #4D6A6B",
"L  c #4A6669",
"P  c #516C6B",
"I  c #566765",
"U  c #54736D",
"Y  c #4B6C72",
"T  c #466C75",
"R  c #4C7176",
"E  c #4E777C",
"W  c #537374",
"Q  c #54797B",
"!  c #5A7C7C",
"~  c #55757A",
"^  c #506F70",
"/  c #6A776A",
"(  c #657E79",
")  c #636C65",
"_  c #516456",
"`  c #85644C",
"'  c #9B744F",
"]  c #856B53",
"[  c #867657",
"{  c #997753",
"}  c #8E7549",
"|  c #A27654",
" . c #A57B55",
".. c #AA7C54",
"X. c #A17E58",
"o. c #B07F56",
"O. c #837864",
"+. c #04A904",
"@. c #168825",
"#. c #109220",
"$. c #798138",
"%. c #7A8658",
"&. c #6F8153",
"*. c #66837C",
"=. c #7C936C",
"-. c #5C807E",
";. c #8C8F3C",
":. c #B5B93E",
">. c #A6AD3D",
",. c #9AA03C",
"<. c #CBD13F",
"1. c #E2E93F",
"2. c #8B844C",
"3. c #9A895C",
"4. c #9A874E",
"5. c #A98459",
"6. c #B48356",
"7. c #B68C59",
"8. c #A99959",
"9. c #B99158",
"0. c #AD964B",
"q. c #B8AD4C",
"w. c #868765",
"e. c #968865",
"r. c #8A9079",
"t. c #A89A63",
"y. c #B99564",
"u. c #AD966E",
"i. c #96AC72",
"p. c #B0AA6F",
"a. c #C19B56",
"s. c #CEA554",
"d. c #CAAB53",
"f. c #D5B851",
"g. c #CBB651",
"h. c #C19864",
"j. c #CBB26E",
"k. c #C9C745",
"l. c #DCCB4C",
"z. c #CED441",
"x. c #D7D647",
"c. c #CEC955",
"v. c #E2DB49",
"b. c #E4D95B",
"n. c #DCE34C",
"m. c #E9ED45",
"M. c #E6E945",
"N. c #EAF244",
"B. c #EAF14E",
"V. c #ECF259",
"C. c #CCC873",
"Z. c #DBE578",
"A. c #EBEC73",
"S. c #577E82",
"D. c #5B8383",
"F. c #5D8B8C",
"G. c #598488",
"H. c #5F9193",
"J. c #5E8F90",
"K. c #628C8C",
"L. c #658887",
"P. c #68928C",
"I. c #79968B",
"U. c #678E92",
"Y. c #629595",
"T. c #699495",
"R. c #669C9D",
"E. c #6B9C9C",
"W. c #679897",
"Q. c #729691",
"!. c #729C9D",
"~. c #739B94",
"^. c #7D8D83",
"/. c #6BA19F",
"(. c #75A49B",
"). c #6C9DA0",
"_. c #6CA2A3",
"`. c #67A0A0",
"'. c #73A4A4",
"]. c #74ABAB",
"[. c #7BACAC",
"{. c #79A9A7",
"}. c #7DAEB0",
"|. c #7DB2B3",
" X c #8BA89A",
".X c #93A795",
"XX c #94B498",
"oX c #B4BB90",
"OX c #83AEA4",
"+X c #8DAFA9",
"@X c #89B5AA",
"#X c #9BBDA9",
"$X c #93B9AB",
"%X c #82B4B5",
"&X c #85BBBC",
"*X c #89BCBD",
"=X c #86B9B7",
"-X c #9EAA97",
";X c #C2B88B",
":X c #9BC5B7",
">X c #92C1B8",
",X c #A6CAB7",
"<X c #AED1BE",
"1X c #B1D3BE",
"2X c #AECEA7",
"3X c #DAD086",
"4X c #F2F687",
"5X c #F5F89C",
"6X c #E8E387",
"7X c #F5F8A4",
"8X c #F7F9B7",
"9X c #EBE5A4",
"0X c #E3DB88",
"qX c #89BFC0",
"wX c #87BEC0",
"eX c #8CC3C4",
"rX c #8FC7C8",
"tX c #92C5C3",
"yX c #96C8C5",
"uX c #A2CDC1",
"iX c #FAFACC",
"pX c #FFFFFB",
/* pixels */
"+.+.+.+.+.+.+.+.+.+.+.+.+.+.+.+.+.+.+.+.+.+.+.+.+.+.+.+.+.+.+.+.+.+.+.+.+.+.+.+.+.+.+.+.+.+.+.+.+.+.+.+.+.+.+.+.+.+.+.+.+.+.+.+.",
"+.+.+.+.+.+.+.+.+.+.+.+.+.+.+.+.+.+.+.+.+.+.+.+.+.+.+.+.+.+.+.+.+.+.+.+.+.+.+.+.+.+.+.+.+.+.+.+.+.+.+.+.+.+.+.+.+.+.+.+.+.+.+.+.",
"+.+.+.+.+.+.+.+.+.+.+.+.+.+.+.+.+.+.+.+.+.+.+.+.+.+.+.+.    . % $ O     +.+.+.+.+.+.+.+.+.+.+.+.+.+.+.+.+.+.+.+.+.+.+.+.+.+.+.+.",
"+.+.+.+.+.+.+.+.+.+.+.+.+.+.+.+.+.+.+.+.+.+.+.+.    . $ + + t R K c 7 O O #     +.+.+.+.+.+.+.+.+.+.+.+.+.+.+.+.+.+.+.+.+.+.+.+.",
"+.+.+.+.+.+.+.+.+.+.+.+.+.+.+.+.+.+.+.+.+.+.+.  p f s F.Y.D.D.R.W.W.F.K K [ w.9   +.+.+.+.+.+.+.+.+.+.+.+.+.+.+.+.+.+.+.+.+.+.+.",
"+.+.+.+.+.+.+.+.+.+.+.+.+.+.+.+.+.+.+.+.+.+.O r '.~ W.&X|./.F.W.R.R.R.F.Y.w.oXU.r O +.+.+.+.+.+.+.+.+.+.+.+.+.+.+.+.+.+.+.+.+.+.",
"+.+.+.+.+.+.+.+.+.+.+.+.+.+.+.+.+.+.+.+.+.. f _.eX)._._.R.R.R.W.R._.'.R._.W K.eX).f . +.+.+.+.+.+.+.+.+.+.+.+.+.+.+.+.+.+.+.+.+.",
"+.+.+.+.+.+.+.+.+.+.+.+.+.+.+.+.+.+.+.  . $ W ].wXE.^.{.|.].K.E.|.wX|.].}.E._.wX].W $ .   +.+.+.+.+.+.+.+.+.+.+.+.+.+.+.+.+.+.+.",
"+.+.+.+.+.+.+.+.+.+.+.+.+.+.+.+.+.+.  $ $ 7 Q '.>X Xj.XXeX|.K.T.*XrXeXrXK.F '.>X'.Q 7 $ $   +.+.+.+.+.+.+.+.+.+.+.+.+.+.+.+.+.+.",
"+.+.+.+.+.+.+.+.+.+.+.+.+.+.+.+.+.  9 F.G t W E.,X2X6X=.W.R.W.F.E.&X=X[.G L.*X:XE.W t G F.9   +.+.+.+.+.+.+.+.+.+.+.+.+.+.+.+.+.",
"+.+.+.+.+.+.+.+.+.+.+.+.+.+.+.+.  r s W.x t F G._.(.%.I E.R.R.R.R.R.F.!.W D.E./.G.c t x W.s r   +.+.+.+.+.+.+.+.+.+.+.+.+.+.+.+.",
"+.+.+.+.+.+.+.+.+.+.+.+.+.+.+.+.f H.Y r.] c J G.R.F.H ! [._._.].].E.).qXQ.O.e.W.G.a a K Y.Y H.f +.+.+.+.+.+.+.+.+.+.+.+.+.+.+.+.",
"+.+.+.+.+.+.+.+.+.+.+.+.+.+.+.  s Y.^ oXC.( ].|.R.K H P '.|.|.E.L W {.|.( 0.Z.XX|.%XL.D.Y.W Y.s   +.+.+.+.+.+.+.+.+.+.+.+.+.+.+.",
"+.+.+.+.+.+.+.+.+.+.+.+.+.+.  & d F.c i.8.H [.rX[.G 9 H _.qXqX@X/ K ].R.v q.iXoXeX*X! D.G.c F.d &   +.+.+.+.+.+.+.+.+.+.+.+.+.+.",
"+.+.+.+.+.+.+.+.+.+.+.+.+.+.O x v c u l = F ~.:XeX].8 L W._.].$X X-.R.R.^ 4.b.i.wX'.L i a u c v x O +.+.+.+.+.+.+.+.+.+.+.+.+.+.",
"+.+.+.+.+.+.+.+.+.+.+.+.+.  & L x i N z 8 ~ W.@X{.~ 8 P W.R.R.R.Y.K W.R.D.= S ~.].R.Q 9 i i q x L &   +.+.+.+.+.+.+.+.+.+.+.+.+.",
"+.+.+.+.+.+.+.+.+.+.+.+.  O q c f ( ;X2.p ! R.R.R.S.~ ~ F.W.R.R.Y.G Y.R.Y G J G.R.R.! x 7 G S.f c q O   +.+.+.+.+.+.+.+.+.+.+.+.",
"+.+.+.+.+.+.+.+.+.+.+.+.$ x a & ).@X0X3.z / F.S.E.rXrX'.~ D.W.R.G.d D.].|.qXtXW.S.F.H H R |.rXU.$ a x & +.+.+.+.+.+.+.+.+.+.+.+.",
"+.+.+.+.+.+.+.+.+.+.+.  a P t p %X{.=.z 8.y.z t G.&XrXeX&XK.H D.W 9 ~ =XyX,X,XP.t $ r Q |.eXrX{.t 7 L a   +.+.+.+.+.+.+.+.+.+.+.",
"+.+.+.+.+.+.+.+.+.+.+.u v H 9 H !.rX*Xi.8Xb.Z v ! _.>X,X1X#Xa c f 0 d !  XOXR.F.H x ! |.eXeXeX'.L 7 F v u +.+.+.+.+.+.+.+.+.+.+.",
"+.+.+.+.+.+.+.+.+.+.  i H t a W Y.].#Xc.4X3Xz F ~ Y./.OX:XI.d S.D.[.|.T.W R.R.F.P [ 3..X&X|._.Y.^ a q v i   +.+.+.+.+.+.+.+.+.+.",
"+.+.+.+.+.+.+.+.+.+.. % 8 O a P F.R.W.i.q.0.j H Q Y.R.R.R.R f |.eXtX:X~.K R.Q.*.b :.A.oXE._.R.Y.P p , 3.* . +.+.+.+.+.+.+.+.+.+.",
"+.+.+.+.+.+.+.+.+.+.O t 8 $ t H D.W.R.Y.l n 8 H K.R.R.R.R.W t D._.%X{.S.K H.w.u.z x.5XZ.P.R.W.D.H r j p.b O +.+.+.+.+.+.+.+.+.+.",
"+.+.+.+.+.+.+.+.+.  7 P u a Q '.S.f F.W.G H 7 f F.R.R.R.W.W x G.R.R.).R G Y 2.C.< a.b.k.U F.f S.'.Q a y K 7 +.+.+.+.+.+.+.+.+.+.",
"+.+.+.+.+.+.+.+.+.$ u P b a L.rXeXK.T.'.P t O G Q Y.R.R.D.3.e.K.W._.R.J L.}./ i.G z 0.%.E.T.K.eXrXL.a d P u +.+.+.+.+.+.+.+.+.+.",
"+.+.+.+.+.+.+.+.  a n 8.[ H !.rXeXrXrXeX[.c p [.%XK.W.R.W 8.oXP Y |.*X=XtXeX].&X[.p H [.rXrXrXeXeX!.c a P c t +.+.+.+.+.+.+.+.+.",
"+.+.+.+.+.+.+.+.  F O.6X0.! |.rXeXeXeXeX%XH t L.qX*X%X].T.^.=.c t D.[.$XOX_.R.'.L.t H %XeXeXeXtXyX|.Q t H a c +.+.+.+.+.+.+.+.+.",
"+.+.+.+.+.+.+.+.@.F S l.} R _.].%XuX1X:X*.H t P E.>X<X1X<X=X_.W t Q R.R.R.R.R.K.P 9 H *.:X<X1X,X$X_.F.7 & i H   +.+.+.+.+.+.+.+.",
"+.+.+.+.+.+.+.+.+.a i 2 j S.R.R.'.$X#X~.P F t P G.'.#X#X#X'.R.Q a W K.R.R.R.W.D.K t F P ~.#X#XOXW.R.J.& O y a +.+.+.+.+.+.+.+.+.",
"+.+.+.+.+.+.+.+.+.y q f Y Q R.R.R.R.R.F.P F & c G.Y.R.R.R.R.F.n j F G._.R.R.R.F.L 9 c P F.R.R.( t.Q.Q Y c q i +.+.+.+.+.+.+.+.+.",
"+.+.+.+.+.+.+.+.@.i $ K Y.G._.R.R.R.R.Y.P t = z P P.Q.~.~.*.n { 5.z I P ! D.L x z j t P Y.R.F.V 9X.XG.Y.K * y @.+.+.+.+.+.+.+.+.",
"+.+.+.+.+.+.+.+.@.q 8 K ! %XeX|.].R.R.Y.d o B 9.7.[ ] y.h.] { j.j.{ [ 7.6.S Z 9.a.Z o f T.r.e.z q.=.|.! ) 8.S +.+.+.+.+.+.+.+.+.",
"+.+.+.+.+.+.+.+.* * a P K L.*XrXeX|.W.D.L p ; 5.5.N M 7.h.M B y.5.z N y.X.m N y.5.j p H ) d.Z.w.L.[.L.K l j.w.> +.+.+.+.+.+.+.+.",
"+.+.+.+.+.+.+.+.+.f L.P / 3.e.~.|._.W L P H j | ..M B  .6.B M ..| M B 6...M M ..' j H K j j.8XZ.I.~ P P F r.l +.+.+.+.+.+.+.+.+.",
"+.+.+.+.+.+.+.+.a K.eX'.oXA.:.c P.Q.J x L t < 6...B C 9.7.C ` 6.7.C C 7.6.B B 6...< t L y 9.b.z._ K L ! '.*XK.a +.+.+.+.+.+.+.+.",
"+.+.+.+.+.+.+.+.K ].rX@XZ.5Xx.< e.w.f a x O = ' 4.2 k q.q.5 k ' k.5 5 k.} < 3 4.' = O d a V 3.&.7 c U.|.rXeX].K +.+.+.+.+.+.+.+.",
"+.+.+.+.+.+.+.> Q _.&X*.<.b.a.z C.2.J }.!.F O % % @ X = : 1 1 = , 1 1 , # X @ # % O F !.%X|.*X'.t K.rXuXyX&X_.Q > +.+.+.+.+.+.+.",
"+.+.+.+.+.+.+.8 F.R._.G.=.q.N 8 %.A *X,XL.L q ; - e # 6 z.n.1.<.z.n.n.z.6 # ; - = q L L.1X<XeX{.a ~ [.#X+X'.R.F.8 +.+.+.+.+.+.+.",
"+.+.+.+.+.+.+.9 Y.R.R.R.R.L.c d S.Y.$X{.K.P q B m ] k >.N.V.5X7XA.4XA.N.>.k k m B i P K.'.$X'.F.d K W.R.R.R.R.Y.9 +.+.+.+.+.+.+.",
"+.+.+.+.+.+.+.0 Y._.R.R.R.W.A u Y.R.R.R.W.~ 8 m ` | C ;.N.A.pXpX8XV.N.N.;.V C ' B q ~ W.R.R.R.T.t 9 G.R.R.R._.Y.0 +.+.+.+.+.+.+.",
"+.+.+.+.+.+.+.8 D.|._.R.W.^.p.j E R.R.R.R.! a M  .9.4.5 m.4XpXpXiX7XB.N.5 0.5. .M a ! R.R.R.Q.t.e.x Y E.R._.|.D.8 +.+.+.+.+.+.+.",
"+.+.+.+.+.+.+.F Y.&X&X|.&X2X6X2 T R.R.R.W.~ t M |  .0.6 m.4X7X7X8X5XB.m.6 q.9.| M j e.Q.R.R.( c.3X X%X&X|.&X&XY.F +.+.+.+.+.+.+.",
"+.+.+.+.+.+.+.K W.'.eXyXrX:Xi.q Y R._.W.W d o < .. .q.$.m.N.N.A.iX4XB.z.1 g.9.5.; 2 0Xr.W._.v q.c.(.rXrXyXeX'.W.K +.+.+.+.+.+.+.",
"+.+.+.+.+.+.7 ! R.R.OX X$X=XK.W %X&XwX=XU.Y g ; | { g.4 n.N.N.B.V.V.N.z., c.5.7.; , j.XX%XeX~ V / K.=X$X XOXR.R.! 7 +.+.+.+.+.+.",
"+.+.+.+.+.+.8 W W.R.R.F.P./.F.'.rXeXeXrXrX&XF.w ' 7.c.4 z.m.M.M.N.N.N.z.2 g.{ ..w T Q.eXrXeX*X|.'.F./.P.F.R.R.W.W 8 +.+.+.+.+.+.",
"+.+.+.+.+.+.9 +.h E R.R.R.W.K.:XtXeXrXrXrX&XJ # ' h.f.6 z.v.l.v.M.l.v.z.5 d. .' # J &XrXrXeXeXtX:XK.W.R.R.R.E h +.9 +.+.+.+.+.+.",
"+.+.+.+.+.+.+.+.+.+.G.R.R.Q F .X<X,XOX!.~.K.K t C h.d.$.k.v.x.f.s.f.M.:.6 d.o.` t K K.E.!.OX,X<X.XF Q R.R.G.+.+.+.+.+.+.+.+.+.+.",
"+.+.+.+.+.+.+.+.+.+.h Y.H.h t ! (.(.E.Y.Y.W.Q d C 7.9.5 k.l.l.f.s.l.m.,.2 9.6.B d W Y.Y.Y.W.(.'.! t h H.Y.h +.+.+.+.+.+.+.+.+.+.",
"+.+.+.+.+.+.+.+.+.+.+.  0 +.@.W R.R.R.R.H.J G x C 6.| 3 k.v.l.s.d.f.f.,.,  ...k p t T Y.R.R.R.R.W +.+.0   +.+.+.+.+.+.+.+.+.+.+.",
"+.+.+.+.+.+.+.+.+.+.+.+.+.+.+.r F.Y.R.W.T +.+.7 j  .| Z z.m.f.s.s.s.l.;.m  . .< +.+.+.f Y.R.Y.G.9 +.+.+.+.+.+.+.+.+.+.+.+.+.+.+.",
"+.+.+.+.+.+.+.+.+.+.+.+.+.+.+.+.#.f R   @.+.+.+.= ` ` ` :.M.f.  s.s.s.2 < B ' < +.+.+.+.  Q s +.+.+.+.+.+.+.+.+.+.+.+.+.+.+.+.+.",
"+.+.+.+.+.+.+.+.+.+.+.+.+.+.+.+.+.+.+.+.+.+.+.+.+.= m B #   +.+.+.+.    +.+.k : +.+.+.+.+.+.+.+.+.+.+.+.+.+.+.+.+.+.+.+.+.+.+.+.",
"+.+.+.+.+.+.+.+.+.+.+.+.+.+.+.+.+.+.+.+.+.+.+.+.+.+.+.    +.+.+.+.+.+.+.+.+.+.+.+.+.+.+.+.+.+.+.+.+.+.+.+.+.+.+.+.+.+.+.+.+.+.+.",
"+.+.+.+.+.+.+.+.+.+.+.+.+.+.+.+.+.+.+.+.+.+.+.+.+.+.+.+.+.+.+.+.+.+.+.+.+.+.+.+.+.+.+.+.+.+.+.+.+.+.+.+.+.+.+.+.+.+.+.+.+.+.+.+.",
"+.+.+.+.+.+.+.+.+.+.+.+.+.+.+.  +.+.+.+.+.+.+.+.+.+.+.+.+.+.+.+.+.+.+.+.+.+.+.+.+.+.+.+.+.+.+.+.+.+.+.+.+.+.+.+.+.+.+.+.+.+.+.+.",
"+.+.+.+.+.+.+.+.+.+.+.+.+.+.+.+.+.+.+.+.+.+.+.+.+.+.+.+.+.+.+.+.+.+.+.+.+.+.+.+.+.+.+.+.+.+.+.+.+.+.+.+.+.+.+.+.+.+.+.+.+.+.+.+.",
"+.+.+.+.+.+.+.+.+.+.+.+.+.+.+.+.+.+.+.+.+.+.+.+.+.+.+.+.+.+.+.+.+.+.+.+.+.+.+.+.+.+.+.+.+.+.+.+.+.+.+.+.+.+.+.+.+.+.+.+.+.+.+.+.",
"+.+.+.+.+.+.+.+.+.+.+.+.+.+.+.+.+.+.+.+.+.+.+.+.+.+.+.+.+.+.+.+.+.+.+.+.+.+.+.+.+.+.+.+.+.+.+.+.+.+.+.+.+.+.+.+.+.+.+.+.+.+.+.+.",
"+.+.+.+.+.+.+.+.+.+.+.+.+.+.+.+.+.+.+.+.+.+.+.+.+.+.+.+.+.+.+.+.+.+.+.+.+.+.+.+.+.+.+.+.+.+.+.+.+.+.+.+.+.+.+.+.+.+.+.+.+.+.+.+.",
"+.+.+.+.+.+.+.+.+.+.+.+.+.+.+.+.+.+.+.+.+.+.+.+.+.+.+.+.+.+.+.+.+.+.+.+.+.+.+.+.+.+.+.+.+.+.+.+.+.+.+.+.+.+.+.+.+.+.+.+.+.+.+.+.",
"+.+.+.+.+.+.+.+.+.+.+.+.+.+.+.+.+.+.+.+.+.+.+.+.+.+.+.+.+.+.+.+.+.+.+.+.+.+.+.+.+.+.+.+.+.+.+.+.+.+.+.+.+.+.+.+.+.+.+.+.+.+.+.+.",
"+.+.+.+.+.+.+.+.+.+.+.+.+.+.+.+.+.+.+.+.+.+.+.+.+.+.+.+.+.+.+.+.+.+.+.+.+.+.+.+.+.+.+.+.+.+.+.+.+.+.+.+.+.+.+.+.+.+.+.+.+.+.+.+.",
"+.+.+.+.+.+.+.+.+.+.+.+.+.+.+.+.+.+.+.+.+.+.+.+.+.+.+.+.+.+.+.+.+.+.+.+.+.+.+.+.+.+.+.+.+.+.+.+.+.+.+.+.+.+.+.+.+.+.+.+.+.+.+.+.",
"+.+.+.+.+.+.+.+.+.+.+.+.+.+.+.+.+.+.+.+.+.+.+.+.+.+.+.+.+.+.+.+.+.+.+.+.+.+.+.+.+.+.+.+.+.+.+.+.+.+.+.+.+.+.+.+.+.+.+.+.+.+.+.+."
};
