/* XPM */
static char *ec1713e43c6f486fb80781cd89d3be3fVUb5AUfsMmF0xVl0[] = {
/* columns rows colors chars-per-pixel */
"64 64 216 2 ",
"   c None",
".  c #161C2E",
"X  c #1A1F2F",
"o  c #181F30",
"O  c #17222E",
"+  c #1C2434",
"@  c #1E2939",
"#  c #252532",
"$  c #2A2934",
"%  c #232D3B",
"&  c #232835",
"*  c #332E37",
"=  c #25313E",
"-  c #2C343E",
";  c #393539",
":  c #4B3E3C",
">  c #453B3D",
",  c #4E403C",
"<  c #48443C",
"1  c #53443E",
"2  c #57493D",
"3  c #58543A",
"4  c #2A3641",
"5  c #2D3A44",
"6  c #2D3D4A",
"7  c #253340",
"8  c #323C45",
"9  c #393D43",
"0  c #4D3F40",
"q  c #2E414D",
"w  c #374145",
"e  c #33424B",
"r  c #3A4549",
"t  c #39484D",
"y  c #354952",
"u  c #3B4D53",
"i  c #344A55",
"p  c #3C5156",
"a  c #3C535B",
"s  c #2F4754",
"d  c #3A5661",
"f  c #3D5A64",
"g  c #494744",
"h  c #5D4B43",
"j  c #564541",
"k  c #49544B",
"l  c #5A5448",
"z  c #42565A",
"x  c #445A5D",
"c  c #485C5D",
"v  c #435256",
"b  c #5A5E56",
"n  c #644E46",
"m  c #625344",
"M  c #6C5445",
"N  c #6A5B4A",
"B  c #735946",
"V  c #7C5E49",
"C  c #755949",
"Z  c #7D624A",
"A  c #756C4D",
"S  c #656759",
"D  c #706B50",
"F  c #445D62",
"G  c #485F61",
"H  c #435B65",
"J  c #4B6364",
"K  c #46646C",
"L  c #4B6668",
"P  c #4D6A6B",
"I  c #4A6769",
"U  c #516C6B",
"Y  c #566765",
"T  c #54736D",
"R  c #4B6C72",
"E  c #466C75",
"W  c #4D7176",
"Q  c #4E777C",
"!  c #537374",
"~  c #53747C",
"^  c #55797B",
"/  c #5A7C7C",
"(  c #597777",
")  c #506F70",
"_  c #6A776A",
"`  c #657E79",
"'  c #636C65",
"]  c #516456",
"[  c #87654D",
"{  c #926C4E",
"}  c #9B724F",
"|  c #866A52",
" . c #936D51",
".. c #867657",
"X. c #9D7352",
"o. c #967955",
"O. c #8D7746",
"+. c #A27653",
"@. c #A57A54",
"#. c #AB7D55",
"$. c #A17E58",
"%. c #837864",
"&. c #04A904",
"*. c #7A8658",
"=. c #6F8153",
"-. c #5C807E",
";. c #7E8E6C",
":. c #66837C",
">. c #7B966C",
",. c #B6B93F",
"<. c #C5CB3F",
"1. c #8B844C",
"2. c #9A895C",
"3. c #9B8B52",
"4. c #A98459",
"5. c #B38356",
"6. c #B38B5C",
"7. c #B98C5B",
"8. c #B28458",
"9. c #A99959",
"0. c #B9925A",
"q. c #B49A4C",
"w. c #B9AD50",
"e. c #868765",
"r. c #968865",
"t. c #878D7D",
"y. c #8C9276",
"u. c #A89A63",
"i. c #B99564",
"p. c #AD966E",
"a. c #96AC72",
"s. c #B0AA6F",
"d. c #C19A58",
"f. c #C29964",
"g. c #C9BC72",
"h. c #CCAE6C",
"j. c #C2B158",
"k. c #D0CE4F",
"l. c #E4D95B",
"z. c #CCC873",
"x. c #DBE578",
"c. c #E8E76C",
"v. c #E6E47A",
"b. c #597D82",
"n. c #537E82",
"m. c #5B8383",
"M. c #5C858A",
"N. c #5D8B8C",
"B. c #578486",
"V. c #5F9193",
"C. c #5E8F90",
"Z. c #618586",
"A. c #628C8C",
"S. c #688988",
"D. c #68928C",
"F. c #79968B",
"G. c #678E92",
"H. c #629595",
"J. c #699495",
"K. c #669C9D",
"L. c #6B9C9C",
"P. c #679897",
"I. c #729691",
"U. c #739B94",
"Y. c #729C9D",
"T. c #7D8D83",
"R. c #6BA19F",
"E. c #75A49B",
"W. c #6C9DA0",
"Q. c #6CA2A3",
"!. c #67A0A0",
"~. c #73A4A4",
"^. c #74ABAB",
"/. c #7BACAC",
"(. c #79A9A7",
"). c #7DAEB0",
"_. c #7DB2B3",
"`. c #8BA89A",
"'. c #93A795",
"]. c #94B498",
"[. c #B4BB90",
"{. c #83AEA4",
"}. c #8DAFA9",
"|. c #89B5AA",
" X c #9BBDA9",
".X c #93B9AB",
"XX c #82B4B5",
"oX c #81B7B9",
"OX c #85BBBC",
"+X c #89BCBD",
"@X c #8CBAB5",
"#X c #B3BDA0",
"$X c #88978D",
"%X c #C2B88B",
"&X c #8DC2BF",
"*X c #9DC2B2",
"=X c #99C7BC",
"-X c #9EC0AA",
";X c #ABCEBA",
":X c #A2C7B6",
">X c #AED1BE",
",X c #B1D3BE",
"<X c #AECEA7",
"1X c #DAD086",
"2X c #E3DB88",
"3X c #E8E387",
"4X c #F5F796",
"5X c #F3F2B1",
"6X c #89BFC0",
"7X c #87BEC0",
"8X c #8CC3C4",
"9X c #8FC7C8",
"0X c #92C5C3",
"qX c #96C8C5",
"wX c #A2CDC1",
"eX c #FAF8C4",
/* pixels */
"&.&.&.&.&.&.&.&.&.&.&.&.&.&.&.&.&.&.&.&.&.&.&.&.&.&.&.&.&.&.&.&.&.&.&.&.&.&.&.&.&.&.&.&.&.&.&.&.&.&.&.&.&.&.&.&.&.&.&.&.&.&.&.&.",
"&.&.&.&.&.&.&.&.&.&.&.&.&.&.&.&.&.&.&.&.&.&.&.&.&.&.&.&.&.&.&.&.&.&.&.&.&.&.&.&.&.&.&.&.&.&.&.&.&.&.&.&.&.&.&.&.&.&.&.&.&.&.&.&.",
"&.&.&.&.&.&.&.&.&.&.&.&.&.&.&.&.&.&.&.&.&.&.&.&.&.&.&.&.&.&.&.&.&.&.&.&.&.&.&.&.&.&.&.&.&.&.&.&.&.&.&.&.&.&.&.&.&.&.&.&.&.&.&.&.",
"&.&.&.&.&.&.&.&.&.&.&.&.&.&.&.&.&.&.&.&.&.&.&.&.&.&.&.&.@ @ t W P x 4 + &.&.&.&.&.&.&.&.&.&.&.&.&.&.&.&.&.&.&.&.&.&.&.&.&.&.&.&.",
"&.&.&.&.&.&.&.&.&.&.&.&.&.&.&.&.&.&.&.&.&.&.&.&.y a i N.H.m.m.K.P.P.N.P P ..e.6 &.&.&.&.&.&.&.&.&.&.&.&.&.&.&.&.&.&.&.&.&.&.&.&.",
"&.&.&.&.&.&.&.&.&.&.&.&.&.&.&.&.&.&.&.&.&.&.&.q ~.~ P.oX_.R.N.P.K.K.K.N.H.e.#XG.q &.&.&.&.&.&.&.&.&.&.&.&.&.&.&.&.&.&.&.&.&.&.&.",
"&.&.&.&.&.&.&.&.&.&.&.&.&.&.&.&.&.&.&.&.&.&.a Q.8XW.Q.Q.K.K.K.P.K.Q.~.K.Q.! A.8XW.a &.&.&.&.&.&.&.&.&.&.&.&.&.&.&.&.&.&.&.&.&.&.",
"&.&.&.&.&.&.&.&.&.&.&.&.&.&.&.&.&.&.&.&.&.% ! ^.7XL.T.(._.^.A.L._.OX_.^.).L.Q.7X^.! % &.&.&.&.&.&.&.&.&.&.&.&.&.&.&.&.&.&.&.&.&.",
"&.&.&.&.&.&.&.&.&.&.&.&.&.&.&.&.&.&.&.% % 4 ^ ~.8X`.h.].8X_.A.J.+X8X8X8XA.G ~.8X~.^ 4 % % &.&.&.&.&.&.&.&.&.&.&.&.&.&.&.&.&.&.&.",
"&.&.&.&.&.&.&.&.&.&.&.&.&.&.&.&.&.&.6 N.H e ! L.:X<X3X;.P.K.P.N.L.OXOX/.H Z.+X*XL.! e H N.6 &.&.&.&.&.&.&.&.&.&.&.&.&.&.&.&.&.&.",
"&.&.&.&.&.&.&.&.&.&.&.&.&.&.&.&.&.q i P.z t G M.Q.E.*.Y L.K.K.K.K.K.N.Y.! m.L.R.M.x e z P.i q &.&.&.&.&.&.&.&.&.&.&.&.&.&.&.&.&.",
"&.&.&.&.&.&.&.&.&.&.&.&.&.&.&.&.a V.P t.| x K M.K.N.J / /.Q.Q.^.^.L.W.6XI.%.r.P.N.i u P H.R V.a &.&.&.&.&.&.&.&.&.&.&.&.&.&.&.&.",
"&.&.&.&.&.&.&.&.&.&.&.&.&.&.&.&.i H.) [.z.` ^._.K.P J U ~._._.L.L ! (._.` q.v.]._.XXZ.m.H.! H.i   &.&.&.&.&.&.&.&.&.&.&.&.&.&.&.",
"&.&.&.&.&.&.&.&.&.&.&.&.&.&.&.&.a N.x a.9.J /.8X/.H 6 J Q.6X6X|._ I ^.K.c w.eX#X8X+X/ m.M.x N.p = &.&.&.&.&.&.&.&.&.&.&.&.&.&.&.",
"&.&.&.&.&.&.&.&.&.&.&.&.&.&.&.z c x t k ; G U.=X8X^.5 L P.Q.^.@X`.-.K.K.) 3.l.a.OX~.L w u t x c z + &.&.&.&.&.&.&.&.&.&.&.&.&.&.",
"&.&.&.&.&.&.&.&.&.&.&.&.&.&.= L z w N l 5 ( P.|.(.~ 5 U P.K.K.K.H.P H.K.m.; A U.^.K.^ 6 w w 8 z L = &.&.&.&.&.&.&.&.&.&.&.&.&.&.",
"&.&.&.&.&.&.&.&.&.&.&.&.&.+ 8 x a ` %X1.y / K.K.P.~ ~ ( N.P.K.K.H.H H.K.R H K B.K.K./ z 4 H b.a x 8 + &.&.&.&.&.&.&.&.&.&.&.&.&.",
"&.&.&.&.&.&.&.&.&.&.&.&.&.z u = W.|.2X2.l _ N.n.L.9X8X~.( m.P.K.M.p m.^._.6X0XP.n.N.J J W _.9XG.% u z = &.&.&.&.&.&.&.&.&.&.&.&.",
"&.&.&.&.&.&.&.&.&.&.&.&.u U t y XX(.>.l 9.i.l e M.OX8X8XOXA.J m.! 6 ( OXqX;X*XD.e % q ^ _.8X8X/.t 4 L u &.&.&.&.&.&.&.&.&.&.&.&.",
"&.&.&.&.&.&.&.&.&.&.&.&.c J 6 J Y.8XOXa.5Xc.A x / Q.=X;X,X Xu x a 7 p / `.{.K.N.J z / _.8X8X8X~.L 4 G c &.&.&.&.&.&.&.&.&.&.&.&.",
"&.&.&.&.&.&.&.&.&.&.&.w J t u ! H.^. Xk.4X1Xl G ( H.R.{.-XF.p b.m./._.J.! K.K.N.U ..2.$XOX_.Q.P.) u 8 c w &.&.&.&.&.&.&.&.&.&.&.",
"&.&.&.&.&.&.&.&.&.&.&.& 5 + u U N.K.P.a.w.q.g J ^ H.K.K.K.W a _.8X0X=XU.I K.I.:.v ,.c.[.L.R.K.H.U y < 3.- &.&.&.&.&.&.&.&.&.&.&.",
"&.&.&.&.&.&.&.&.&.&.+ t 5 % e J m.P.K.H.k b 5 G A.K.K.K.K.! e m.Q.XX(.b.I V.e.p.l k.4Xx.D.K.P.m.J q g s.v + &.&.&.&.&.&.&.&.&.&.",
"&.&.&.&.&.&.&.&.&.&.4 U t u ^ ~.b.a N.P.H J 4 a N.K.K.K.P.! z M.K.K.W.W H R 1.z.2 d.l.k.T N.a b.~.^ u r P 4 &.&.&.&.&.&.&.&.&.&.",
"&.&.&.&.&.&.&.&.&.&.t Y v p S.8X8XA.J.~.U e + H ^ H.K.K.m.2.r.A.P.Q.K.K Z.)._ a.H l q.*.L.J.A.8X8XS.u p U t & &.&.&.&.&.&.&.&.&.",
"&.&.&.&.&.&.&.&.&.u b 9...J Y.8X8X8X8X8X/.x y /.XXA.P.K.! 9.[.U R _.+X@X0X8X^.OX/.y J /.8X8X8X8X8XY.x u U x e &.&.&.&.&.&.&.&.&.",
"&.&.&.&.&.&.&.&.&.G %.3Xq./ _.8X8X8X8X8XXXJ t Z.6X+XoX^.J.T.;.x e m./..X{.Q.K.~.Z.e J XX8X8X8X0XqX_.^ e J u x &.&.&.&.&.&.&.&.&.",
"&.&.&.&.&.&.&.&.&.G D l.O.W Q.^.oXwX>X*X:.J e U L.&X>X,X>XOXQ.! e ^ K.K.K.K.K.A.U e J :.*X>X,X:X.XQ.N.4 = w J &.&.&.&.&.&.&.&.&.",
"&.&.&.&.&.&.&.&.&.u w 3 g n.K.K.^..X XU.U G e U M.~. X X X~.K.^ u ! A.K.K.K.P.m.P e G U U. X X{.P.K.C.= + r u &.&.&.&.&.&.&.&.&.",
"&.&.&.&.&.&.&.&.&.r 8 a R ^ K.K.K.K.K.N.U G = x M.P.K.K.K.K.N.b g G M.Q.K.K.K.N.I 6 x U N.K.K.` u.I.^ R x 8 r &.&.&.&.&.&.&.&.&.",
"&.&.&.&.&.&.&.&.% r % P H.M.Q.K.K.K.K.H.U e ; l U D.I.U.U.:.b X.4.l Y U / M.I z l g e U H.K.N.S 5X'.M.H.P - r &.&.&.&.&.&.&.&.&.",
"&.&.&.&.&.&.&.&.% 8 5 P / XX8X_.^.K.K.H.p o B 0.6...| i.f.| o.h.h.o...6.8.A Z 0.d.Z o a J.t.r.h w.>._./ ' 9.D &.&.&.&.&.&.&.&.&.",
"&.&.&.&.&.&.&.&.- - u U P S.@X8X8X_.P.m.L y > 4.4.m N 6.f.N N i.4.m N i.$.m N i.4.g y J ' j.v.e.S./.S.P k g.e.&.&.&.&.&.&.&.&.&.",
"&.&.&.&.&.&.&.&.% a Z.U _ 2.r.U._.Q.! L U J g +.#.M B @.5.B M #.+.M B 8.#.M M #.X.g J P g h.5Xx.F.( U U G y.k &.&.&.&.&.&.&.&.&.",
"&.&.&.&.&.&.&.&.u A.8X~.[.c.,.x D.I.K z L t 1 5.#.V Z 7.5.V Z 5.5.V V 5.#.V B 5.#.1 t L r 0.l.k.] P L / ~.OXN.u &.&.&.&.&.&.&.&.",
"&.&.&.&.&.&.&.+ P ^.8X|.x.4Xk.1 r.e.a u z + ;  .[ 1 j +.{ 1 h X.+.2 h +.V 1 j X.} ; + p u D 3.=.4 x G._.8X8X^.P + &.&.&.&.&.&.&.",
"&.&.&.&.&.&.&.% ^ Q.OX:.<.l.d.l z.1.K ).Y.G + # # . X # # X X # # X X # + . X # # + G Y.XX_.@X(.e A.8XwXqXOXQ.^ % &.&.&.&.&.&.&.",
"&.&.&.&.&.&.&.5 N.K.Q.M.>.w.m 5 *.S @X:XS.L 8 > * 0 $ . . . . . . . . . . $ > * ; 8 L S.;X>X8X(.u ~ /. X}.~.K.N.5 &.&.&.&.&.&.&.",
"&.&.&.&.&.&.&.6 H.K.K.K.K.S.x a b.H.@X(.A.U 8 C n | h . . . . . . . . . . j h n C w U A.~..X~.M.p P P.K.K.K.K.H.6 &.&.&.&.&.&.&.",
"&.&.&.&.&.&.&.7 H.Q.K.K.K.P.S t H.K.K.K.P.( 5 n [ X.C + . . . . . . . . . M V  .C 8 ( P.K.K.K.J.t 6 B.K.K.K.Q.H.7 &.&.&.&.&.&.&.",
"&.&.&.&.&.&.&.5 m._.Q.K.P.T.s.g Q K.K.K.K./ u M #.5.[ # . . . . . . . . # { @.#.M u / K.K.K.I.u.r.z R L.K.Q._.m.5 &.&.&.&.&.&.&.",
"&.&.&.&.&.&.&.G H.oXOX_.OX<X3X3 E K.K.K.P.( e M +.@. .# . . . . . . . . # X.8.@.M g r.I.K.K.` k.1X`.oXOX_.OXoXH.G &.&.&.&.&.&.&.",
"&.&.&.&.&.&.+ P P.~.8XqX8X=Xa.8 R K.Q.P.! p o 1 #.#.+.$ . . . . . . . . # 4.7.4.: 3 2Xt.P.Q.c q.k.E.8X8X0X8X~.P.P + &.&.&.&.&.&.",
"&.&.&.&.&.&.4 / K.K.{.`..X@XA.! oXOX6XOXG.R s : +.o.#.# . . . . . . . . # 4.4.6.> < g.].oX8X~ S _ A.@X.X`.{.K.K./ 4 &.&.&.&.&.&.",
"&.&.&.&.&.&.5 ! P.K.K.N.D.R.N.~.8X8X8X8X8XOXN.9 X.6.8.; . . . . . . . . * 6.o.#.9 E I.8X8X8X+XXX~.N.R.D.N.K.K.P.! 5 &.&.&.&.&.&.",
"&.&.&.&.&.&.6 % d Q K.K.K.P.A.*X0X8X8X8X8XOXK $ } f.d., . . . . . . . . > 7.#.} $ K OX8X8X8X8X0X*XA.P.K.K.K.Q d % 6 &.&.&.&.&.&.",
"&.&.&.&.&.&.&.&.&.@ B.K.K.^ G '.;X:X{.Y.L.A.P e Z f.7., . . . . . . . . , 5.5.[ e P A.L.Y.{.:X;X'.G ^ K.K.B.&.&.&.&.&.&.&.&.&.&.",
"&.&.&.&.&.&.&.&.&.&.f H.V.d e / E.E.L.H.H.P.^ p Z 7.#., . . . . . . . . , 5.5.V p ! H.H.H.L.E.E./ e d V.H.&.&.&.&.&.&.&.&.&.&.&.",
"&.&.&.&.&.&.&.&.&.&.&.&.&.&.% ! K.K.K.K.V.K H z Z 5.@.: . &.&.&.&.&.&.. : @.#.h y e E H.K.K.K.K.! % + &.&.&.&.&.&.&.&.&.&.&.&.&.",
"&.&.&.&.&.&.&.&.&.&.&.&.&.&.&.q N.H.K.P.E . + 4 g #.+.n . &.&.&.&.&.&.. m #.@.1 @ . + a H.K.V.M.6 . &.&.&.&.&.&.&.&.&.&.&.&.&.&.",
"&.&.&.&.&.&.&.&.&.&.&.&.&.&.&.&.&.&.&.&.&.&.&.&.; [ [ B O &.&.&.&.&.&.O 2 C X., &.&.&.&.&.&.&.&.&.&.&.&.&.&.&.&.&.&.&.&.&.&.&.&.",
"&.&.&.&.&.&.&.&.&.&.&.&.&.&.&.&.&.&.&.&.&.&.&.&.O ; m B O &.&.&.&.&.&.&.&.&.&.&.&.&.&.&.&.&.&.&.&.&.&.&.&.&.&.&.&.&.&.&.&.&.&.&.",
"&.&.&.&.&.&.&.&.&.&.&.&.&.&.&.&.&.&.&.&.&.&.&.&.&.&.&.&.&.&.&.&.&.&.&.&.&.&.&.&.&.&.&.&.&.&.&.&.&.&.&.&.&.&.&.&.&.&.&.&.&.&.&.&.",
"&.&.&.&.&.&.&.&.&.&.&.&.&.&.&.&.&.&.&.&.&.&.&.&.&.&.&.&.&.&.&.&.&.&.&.&.&.&.&.&.&.&.&.&.&.&.&.&.&.&.&.&.&.&.&.&.&.&.&.&.&.&.&.&.",
"&.&.&.&.&.&.&.&.&.&.&.&.&.&.&.&.&.&.&.&.&.&.&.&.&.&.&.&.&.&.&.&.&.&.&.&.&.&.&.&.&.&.&.&.&.&.&.&.&.&.&.&.&.&.&.&.&.&.&.&.&.&.&.&.",
"&.&.&.&.&.&.&.&.&.&.&.&.&.&.&.&.&.&.&.&.&.&.&.&.&.&.&.&.&.&.&.&.&.&.&.&.&.&.&.&.&.&.&.&.&.&.&.&.&.&.&.&.&.&.&.&.&.&.&.&.&.&.&.&.",
"&.&.&.&.&.&.&.&.&.&.&.&.&.&.&.&.&.&.&.&.&.&.&.&.&.&.&.&.&.&.&.&.&.&.&.&.&.&.&.&.&.&.&.&.&.&.&.&.&.&.&.&.&.&.&.&.&.&.&.&.&.&.&.&.",
"&.&.&.&.&.&.&.&.&.&.&.&.&.&.&.&.&.&.&.&.&.&.&.&.&.&.&.&.&.&.&.&.&.&.&.&.&.&.&.&.&.&.&.&.&.&.&.&.&.&.&.&.&.&.&.&.&.&.&.&.&.&.&.&.",
"&.&.&.&.&.&.&.&.&.&.&.&.&.&.&.&.&.&.&.&.&.&.&.&.&.&.&.&.&.&.&.&.&.&.&.&.&.&.&.&.&.&.&.&.&.&.&.&.&.&.&.&.&.&.&.&.&.&.&.&.&.&.&.&.",
"&.&.&.&.&.&.&.&.&.&.&.&.&.&.&.&.&.&.&.&.&.&.&.&.&.&.&.&.&.&.&.&.&.&.&.&.&.&.&.&.&.&.&.&.&.&.&.&.&.&.&.&.&.&.&.&.&.&.&.&.&.&.&.&.",
"&.&.&.&.&.&.&.&.&.&.&.&.&.&.&.&.&.&.&.&.&.&.&.&.&.&.&.&.&.&.&.&.&.&.&.&.&.&.&.&.&.&.&.&.&.&.&.&.&.&.&.&.&.&.&.&.&.&.&.&.&.&.&.&.",
"&.&.&.&.&.&.&.&.&.&.&.&.&.&.&.&.&.&.&.&.&.&.&.&.&.&.&.&.&.&.&.&.&.&.&.&.&.&.&.&.&.&.&.&.&.&.&.&.&.&.&.&.&.&.&.&.&.&.&.&.&.&.&.&.",
"&.&.&.&.&.&.&.&.&.&.&.&.&.&.&.&.&.&.&.&.&.&.&.&.&.&.&.&.&.&.&.&.&.&.&.&.&.&.&.&.&.&.&.&.&.&.&.&.&.&.&.&.&.&.&.&.&.&.&.&.&.&.&.&.",
"&.&.&.&.&.&.&.&.&.&.&.&.&.&.&.&.&.&.&.&.&.&.&.&.&.&.&.&.&.&.&.&.&.&.&.&.&.&.&.&.&.&.&.&.&.&.&.&.&.&.&.&.&.&.&.&.&.&.&.&.&.&.&.&."
};
