/* XPM */
static char *_4652efb3efb4a9a885635cf70ad0334bxNyCNxEgpIWp7dY[] = {
/* columns rows colors chars-per-pixel */
"64 64 225 2 ",
"   c #0E1427",
".  c #14172D",
"X  c #151B2D",
"o  c #191E2F",
"O  c #171C30",
"+  c #1A1E32",
"@  c #16232E",
"#  c #192529",
"$  c #1D2233",
"%  c #1D2637",
"&  c #1B2B34",
"*  c #1D3435",
"=  c #1D3D35",
"-  c #243A2D",
";  c #222635",
":  c #252A36",
">  c #23243B",
",  c #252A3B",
"<  c #2B2D3C",
"1  c #322F39",
"2  c #22323E",
"3  c #2D313D",
"4  c #2A3B39",
"5  c #34323D",
"6  c #4D3E3C",
"7  c #1E4436",
"8  c #1E4A37",
"9  c #214439",
"0  c #234838",
"q  c #24583C",
"w  c #3B543B",
"e  c #28733A",
"r  c #4D4B3D",
"t  c #47643A",
"y  c #292742",
"u  c #2B2C43",
"i  c #2E2E48",
"p  c #322E48",
"a  c #273644",
"s  c #2E3341",
"d  c #333443",
"f  c #373747",
"g  c #3D3942",
"h  c #35334D",
"j  c #363B49",
"k  c #3A3D4B",
"l  c #362E51",
"z  c #3A3552",
"x  c #3C3955",
"c  c #3F355A",
"v  c #423D42",
"b  c #433659",
"n  c #433D5B",
"m  c #483C63",
"M  c #4B3C65",
"N  c #513E6D",
"B  c #2B4648",
"V  c #344443",
"C  c #3D424D",
"Z  c #305448",
"A  c #3D4754",
"S  c #365959",
"D  c #316C48",
"F  c #2A7843",
"G  c #38655C",
"H  c #3C6661",
"J  c #3E6B64",
"K  c #3F7E63",
"L  c #494547",
"P  c #4C4349",
"I  c #544B4C",
"U  c #5A4F4E",
"Y  c #5C554E",
"T  c #424652",
"R  c #454953",
"E  c #4B4E57",
"W  c #5B4958",
"Q  c #4D515D",
"!  c #575458",
"~  c #644E47",
"^  c #635453",
"/  c #685B56",
"(  c #715B50",
")  c #725E5A",
"_  c #4C744B",
"`  c #6C6154",
"'  c #77665A",
"]  c #7B665E",
"[  c #4C4165",
"{  c #4E4268",
"}  c #564464",
"|  c #52436C",
" . c #525662",
".. c #595B63",
"X. c #594475",
"o. c #5D4879",
"O. c #505771",
"+. c #684B6D",
"@. c #644A7A",
"#. c #5F626B",
"$. c #437667",
"%. c #417268",
"&. c #50716D",
"*. c #62656B",
"=. c #64656A",
"-. c #69726C",
";. c #6A6C73",
":. c #6E7076",
">. c #757679",
",. c #815D48",
"<. c #89614B",
"1. c #81725F",
"2. c #AE7954",
"3. c #836C62",
"4. c #8B7266",
"5. c #97786A",
"6. c #95786C",
"7. c #897D78",
"8. c #AA7C66",
"9. c #1E961E",
"0. c #04A904",
"q. c #1DA71D",
"w. c #2F9533",
"e. c #28A32A",
"r. c #37A42B",
"t. c #33A533",
"y. c #3BA73A",
"u. c #2E8847",
"i. c #33984A",
"p. c #35A64E",
"a. c #3AA355",
"s. c #38AC53",
"d. c #37B251",
"f. c #39B251",
"g. c #3D8960",
"h. c #57924A",
"j. c #57885B",
"k. c #579859",
"l. c #64924E",
"z. c #659953",
"x. c #46A548",
"c. c #58A555",
"v. c #45B954",
"b. c #54B354",
"n. c #70A856",
"m. c #5C9463",
"M. c #6B8A70",
"N. c #78927B",
"B. c #6CA76D",
"V. c #68C45A",
"C. c #7AC85C",
"Z. c #84BC5B",
"A. c #99876C",
"S. c #9A8B76",
"D. c #B48E6F",
"F. c #A68978",
"G. c #AD9173",
"H. c #C9895A",
"J. c #D28F5E",
"K. c #D7935F",
"L. c #D9945E",
"P. c #DD9B5D",
"I. c #DEA15B",
"U. c #E2A959",
"Y. c #E9B655",
"T. c #C68C63",
"R. c #D69665",
"E. c #D99562",
"W. c #C8AB7D",
"Q. c #D5A27B",
"!. c #88C75E",
"~. c #8BD360",
"^. c #99D963",
"/. c #F6D74A",
"(. c #EDC250",
"). c #F2D154",
"_. c #FEEC44",
"`. c #FCE648",
"'. c #FFF04B",
"]. c #FEEE55",
"[. c #F7DE69",
"{. c #FFF166",
"}. c #FCEE79",
"|. c #FFF279",
" X c #664983",
".X c #664C83",
"XX c #6D4E8B",
"oX c #704F8E",
"OX c #6F508D",
"+X c #76548A",
"@X c #714F90",
"#X c #765295",
"$X c #785497",
"%X c #7F5996",
"&X c #795498",
"*X c #7B7D84",
"=X c #805988",
"-X c #835B95",
";X c #8A5F98",
":X c #98688E",
">X c #8D6198",
",X c #9D6A93",
"<X c #966699",
"1X c #A36E9A",
"2X c #A7719A",
"3X c #838588",
"4X c #878990",
"5X c #959698",
"6X c #A0A489",
"7X c #999AA0",
"8X c #A6A6A7",
"9X c #ADAEB2",
"0X c #D6B684",
"qX c #CFB190",
"wX c #CAB6A7",
"eX c #D0BCAD",
"rX c #DBC291",
"tX c #E3CC97",
"yX c #FDF18C",
"uX c #EAD9A4",
"iX c #F0E2AB",
"pX c #FFF7A8",
"aX c #C4C4C4",
"sX c #FFFACB",
"dX c white",
/* pixels */
"I 0.0.0.0.0.0.0.0.0.0.0.0.0.0.0.0.0.0.0.0.0.0.0.0.0.0.0.0.0.0.0.0.0.0.0.0.0.0.0.0.0.0.0.0.0.0.0.0.0.0.0.0.0.0.0.0.0.0.0.0.0.0.0.",
"0.0.0.0.0.0.0.0.0.0.0.0.0.0.0.0.0.x.0.0.0.0.0.0.0.0.0.0.0.0.0.0.0.0.0.0.0.0.0.0.0.0.0.0.0.0.0.0.0.0.0.0.0.0.0.0.0.0.0.0.0.0.0.0.",
"0.0.0.0.0.0.0.0.0.0.0.0.0.0.0.0.0.0.0.0.0.0.0.0.0.0.0.0.0.0.0.0.0.0.0.0.0.0.0.0.0.0.0.0.0.0.0.0.0.0.0.0.0.0.0.0.0.0.0.0.0.0.0.0.",
"0.0.0.0.0.0.0.0.0.0.0.0.0.0.0.0.0.0.0.0.0.0.0.0.0.0.0.0.0.0.0.0.0.0.0.0.0.0.0.0.0.0.0.0.0.0.0.0.0.0.0.0.0.0.0.0.0.0.0.0.0.0.0.0.",
"0.0.0.0.0.0.0.0.0.0.0.0.0.0.0.0.0.0.0.0.0.0.0.0.0.0.0.0.0.0.0.0.0.0.0.0.0.0.0.0.0.0.0.0.0.0.0.0.0.0.0.0.0.0.0.0.0.0.0.0.0.0.0.0.",
"0.0.0.0.0.0.0.0.0.0.0.0.0.0.0.0.0.0.0.0.0.0.0.0.0.0.0.0.0.0.0.0.0.0.0.0.0.0.0.0.0.0.0.0.0.0.0.0.0.0.0.0.0.0.0.0.0.0.0.0.0.0.0.0.",
"0.0.0.0.0.0.0.0.0.0.0.0.0.0.0.0.0.0.0.0.0.0.0.0.0.0.0.0.0.0.0.0.0.0.0.0.0.0.0.0.0.0.0.0.0.0.0.0.0.0.0.0.0.0.0.0.0.0.0.0.0.0.0.0.",
"0.0.0.0.0.0.0.0.0.0.0.0.0.0.0.0.0.0.0.0.0.0.0.0.0.0.0.0.0.0.0.0.0.0.0.0.0.0.0.0.0.0.0.0.0.0.0.0.0.0.0.0.0.0.0.0.0.0.0.0.0.0.0.0.",
"0.0.0.0.0.0.0.0.0.0.0.0.0.0.0.0.0.0.0.0.0.0.0.0.0.0.0.0.0.0.0.0.0.0.0.0.0.0.0.0.0.0.0.0.0.0.0.0.0.0.0.0.0.0.0.0.0.0.0.0.0.0.0.0.",
"0.0.0.0.0.0.0.0.0.0.0.0.0.0.0.0.0.0.0.0.0.0.0.0.0.0.0.0.0.0.0.0.0.0.0.0.0.0.0.0.0.0.0.0.0.0.0.0.0.0.0.0.0.0.0.0.0.0.0.0.0.0.0.0.",
"0.0.0.0.0.0.0.0.0.0.0.0.0.0.0.qXz.0.r.6.l.0.0.0.0.0.0.0.0.0.0.0.0.0.0.0.0.0.0.0.0.0.0.0.0.0.0.0.0.0.0.0.0.0.0.0.0.0.0.0.0.0.0.0.",
"B.0.0.0.0.0.0.0.0.0.c.wXwXQ.Q.Q.y.0.8.T.T.D.6X0.0.0.0.0.0.0.0.0.0.0.0.0.0.0.0.0.0.0.0.0.0.0.0.0.0.0.0.0.0.0.0.0.0.0.0.0.0.0.0.0.",
"0.0.0.0.0.0.0.0.0.0.eXR.L.L.L.F.0.F.8.8.8.8.8.6.0.0.0.0.0.0.0.0.0.0.0.0.0.0.0.0.0.0.0.0.0.0.0.0.0.0.0.0.0.0.0.0.0.0.0.0.0.0.0.0.",
"0.0.0.0.0.0.0.0.0.eXR.L.I.U.E.S.x.0.0.0.0.z.6.5.6.0.0.0.0.0.0.0.0.0.0.0.0.0.0.0.0.0.0.0.0.0.0.0.0.0.0.0.0.0.0.0.0.0.0.0.0.0.0.0.",
"0.0.0.0.0.0.0.0.0.Q.L.Y.`./.L.F.0.0.0.0.0.y.0.z.6.0.0.0.0.0.0.0.0.0.0.0.0.0.0.0.0.0.0.0.0.0.0.0.0.0.0.0.0.0.0.0.0.0.0.0.0.0.0.0.",
"0.0.0.0.0.0.0.0.0.Q.L./._.(.L.T.0.0.0.0.0.0.0.0.0.0.0.0.0.0.0.0.0.0.0.0.0.0.0.0.0.0.0.0.0.0.0.0.0.0.0.0.0.0.0.0.0.0.0.0.0.0.0.0.",
"0.0.0.0.0.0.0.0.0.D.L././.Y.L.E.Q.0.0.0.0.0.0.0.0.0.0.0.0.0.0.0.k s T 0.0.0.0.0.0.0.h.0.0.0.0.0.0.0.0.0.0.0.0.0.0.0.0.0.0.0.0.0.",
"3X0.0.0.0.0.0.0.0.( L.I.I./.U.L.L.L.K.D.7.0.0.0.0.0.0.0.0.0.0.0.< +.u s :.0.k.0.0.0.0.0.0.0.0.0.0.0.0.0.0.0.0.0.0.0.0.0.0.0.0.0.",
"N.0.0.0.0.0.0.0.0.( J.E.U.`.`.Y.P.L.L.E.G.0.0.0.0.0.0.0.0.0.0.e.u :X=Xl > k *.0.0.0.0.0.0.0.0.0.0.0.0.0.0.0.0.0.0.0.0.0.0.0.0.0.",
"N.0.0.0.0.0.0.0.0.5 ~ E.U.}.|._.).P.P.P.K.wX0.0.0.0.0.0.0.0.0.Q , :X<X#Xm X + T 0.0.0.0.0.0.0.0.0.w.0.0.0.0.0.0.9.0.0.0.0.0.0.0.",
"3X0.0.0.0.0.0.0.0.C 1 H.P.[.sX{.`.`.`./.U.R.6X0.0.0.0.0.0.0.=.s } 2X;X>X-Xz + $ T 0.0.0.0.0.B.h.0.0.0.0.0.0.0.0.0.0.0.0.0.0.0.0.",
"0.0.0.0.0.0.0.0.0.0. .,.E.(.].'.pXpX{._./.L.' 0.0.C *.0.9X5X, z ,X>X;X2X,X{ z $ . s ;.m.0.0.t.< # w # 0.0.0.0.0.0.0.0.0.0.0.0.0.",
"0.0.0.0.0.0.0.0.0.0.9XU H.U./._.pXdXyX].`.U.~ 0.0.$ : Q 7X4X$ +.2X$X>X2X+Xm h $ > $ . ; *.:.C   t h.- :.0.0.0.0.0.0.0.0.0.0.0.0.",
"0.0.0.0.0.0.0.0.0.0.0.=.6 2.P.(.].pXsXsX].Y.<.0.0.4 Z.z.Z & . W >X#X-X+.n h i N oXX.h y $ < ; t n.0 d 0.0.0.0.0.0.0.x.0.0.0.0.0.",
"0.0.0.0.0.0.0.0.0.0.0.0.Q 6 J.U._._.sXdX|.Y.2.0.j.V !.^.b.e @ > oX&XXX{ z b @X#XOX{ n n $ . X n.V.= e 0.0.0.0.0.0.0.0.0.0.0.0.0.",
"0.0.0.0.0.0.0.0.0.0.0.0.:.d r 2./._.yXpXyXY.2.0.3XR _ !.!.b.u.Z | #Xo..X#XoXXXX.[ x u , y > $ w i.7 0.0.0.0.0.0.0.0.0.0.0.B.0.0.",
"0.0.0.0.0.0.0.0.0.0.0.0.0.>.$ r ).].].}.uXT.6 0.5XR   l.^.V.d.g.S o.#X#X#Xo.n n z $ > y @..Xh X = = 3X0.0.0.0.0.0.0.0.0.0.0.0.0.",
"0.0.0.0.0.0.0.0.0.0.0.0.0.0.A L 0XrXuXiXuXG.v 0.0.5Xk w !.C.f.a.J a | XXo.| { { | | XXoX.X| n h ; X =.0.0.0.0.0.0.0.0.0.0.0.0.0.",
"x.0.0.0.0.0.0.0.0.0.0.0.0.0.R ; / uXiXiXtX0XY 0.0.0.0.; l.~.v.s.$.J O.#X#X#X#X#X$X$Xo.| n n n n h X #.M.0.0.0.0.0.0.0.0.0.0.0.0.",
"t.0.0.0.0.0.0.0.0.0.0.0.0.0.R $ A.uXrXS.A.tX/ 0.0.8XQ + 4 z.v.s.$.J O.$X#X#X#XoXX.| n n n n n n h X T M.0.0.0.0.0.0.0.0.0.0.0.0.",
"x.0.0.0.0.0.0.0.0.0.0.0.0.0.T L 0X0X` X 1.rXY 0.0.*.  X . _ v.a.%.J i XX$X.X| { n n n y ; ; ; > > X $ =.0.0.0.0.0.0.0.0.0.0.0.0.",
"0.0.0.0.0.0.0.c.0.0.0.0.0.0.A ; ' I ; : ' I 3 0.8Xj b +.> 9 a.g.J a y XXOX| n x h i > + & 7 7 7 9 9 @ d >.0.0.0.0.0.0.0.0.0.0.0.",
"0.0.0.0.0.0.0.0.0.0.0.0.0.0.j.j X . : 1 : . E 0.-.p ,X2X+.C &.&.Q l  X$XOXm i $ X 2 9 q i.f.f.f.V.C.c.q $ ..0.0.0.0.0.0.0.0.0.0.",
"0.0.0.0.0.0.0.0.0.0.0.0.0.0.0.j.% $ I / I o ..0.-.d ,X2X2X1X;X%X#X#X$X&X@.y X X 2 G a.f.d.f.f.f.V.^.^.c.9 , 0.0.0.0.0.0.0.0.0.0.",
"0.0.0.0.0.0.0.0.0.0.0.0.0.0.0.0.j : ) 4.) o ..0.-.d ,X1X<X<X<X<X-X#X$X.Xc 2 2 B J %.a.f.f.f.s.s.f.V.C.~.C.D , ! 0.0.0.0.0.0.0.0.",
"0.0.0.0.0.0.0.0.0.0.0.0.0.0.0.0.0.< ) 5.] o ..0.;.p ,X,X%X$X#X#X#X#X&XM X & 2 G %.%.K a.f.u.= = q p.f.v.v.v.i.0 ..0.0.0.0.0.0.0.",
"0.0.0.0.0.0.0.0.0.0.0.0.0.0.0.0.0.< / 4.] o :.8X3X, f +X>X-X#X#X#X#X&XM X X % B J %.%.J 9 * X X , B 0 F F i.d.F ; 0.0.0.0.0.0.0.",
"0.0.0.0.0.0.0.0.0.0.0.0.0.0.0.0.0.+ I ' ] o 4X0.0. .. > N #X#X$X$X#X&XM X X % H %.%.%.S 2 G Z X d 0...$ . & u.i.@ 0.0.0.0.0.0.0.",
"0.0.0.0.0.0.0.0.0.0.0.0.0.0.0.0.0.X 5 P v @ C 9X0.*.+ h h c X..X.X#X.Xm h + & H %.%.%.J H %.J & d 0.0.=.E  .4 4 ; 0.0.0.0.0.0.0.",
"0.0.0.0.0.0.0.0.0.0.0.0.0.0.0.0.k : w . . F u.M.0.#.+ @.oXOXXXXXOX#XoX.X{ h , a J %.%.%.%.%.H % d 0.0.0.c.0.B.6X0.0.0.0.0.0.0.0.",
"0.0.0.0.0.0.0.0.0.0.0.0.0.0.0.7XX w Z._ 4 q i.$.0.#.> #XoXoX#X$X$X#X#X&XXXm z $ B G %.%.%.%.B X T 0.0.0.0.0.0.0.0.0.0.0.0.0.0.0.",
"0.0.0.0.0.0.0.0.0.0.0.0.0.0.0.*X7 x.~.^.n.X F S 8X .+ b > u XX$X#X#X$XXXo.m n x i u B J %.S , + 3 k.0.0.0.0.0.0.0.0.0.0.0.0.0.0.",
"0.0.0.0.0.0.0.0.0.0.0.0.0.0.0.*.7 d.V.~.n.4 = ; R < X X $ z #X#X#X#X#X| n n n n n z i S H A x h $ N.0.0.0.0.0.0.0.0.0.0.0.0.0.0.",
"0.0.0.0.0.0.0.0.0.0.0.0.0.0.0.=.9 p.f.v.v.q . X % X + c o.XX&X$X$X&X.Xn n n n n n n n x z n n n i , ..3X0.0.0.0.0.0.0.0.0.0.0.0.",
"0.0.0.0.0.0.0.0.0.0.0.0.0.0.0.0.d 8 f.d.d.0 X j 0.$ X $ + m .X X.X.X| x n n n n n n n x x x n x h X @ @ j k.0.0.0.0.0.0.0.0.0.0.",
"0.0.0.0.0.0.0.0.0.0.0.0.0.0.0.0.-.V q q q @ < 0.0.3 ' / 1.U d g d d g d f i y y y y y < < : d < ; & u.F & T 0.0.0.0.0.0.0.0.0.0.",
"0.0.0.0.0.0.0.0.0.0.0.0.0.0.0.0.0.>.X X $ ; f 0.0.< Y I / ] G.W.G.6.W.A.^ ^ ^ P Y L o ' 6./ P ) P F f.f.u.j 0.0.0.0.0.0.0.0.0.0.",
"0.0.0.0.0.0.0.0.0.0.0.0.0.0.0.0.0.=.X ; I 5 k 0.0.; + $ X < U ^ I P ^ I 5 I 3.^ ] U o / 3.Y : g < u.d.d.u.A 0.0.0.0.t.0.0.0.0.0.",
"0.0.0.0.0.0.0.0.0.0.0.0.0.0.0.0.0.=.X : 3.g k 0. .u n n z i i i i i i i h , $ + $ + X ; < + X X X D s.i.7 C 0.0.0.0.0.0.0.0.0.0.",
"0.0.0.0.0.0.0.0.0.0.0.0.0.0.0.0.0.>.j $ g k 0.0.O N .X.X.Xo.| | [ n n n n x h i O < ^ P . 1 I + X 2 0 7 $ *X0.0.0.0.0.0.0.0.0.0.",
"0.0.0.0.0.0.0.0.0.0.0.0.0.0.0.0.0.>.>.....0.0...X p l N  X@.o.o.| n n n n z z i < U ) P X < / ) g . T ..>.0.0.0.0.0.0.0.0.0.0.0.",
"0.0.0.0.0.0.0.0.0.0.t.0.0.0.0.0.0.c.c.0.y.0.0.*.s s 3 $ + + + O , h h h h $ X $ ] 4.I ; X X 5 6.) j *X0.0.0.0.0.0.0.0.0.0.0.0.0.",
"0.0.0.0.0.0.0.0.0.0.0.0.0.0.0.0.b.0.0.0.0.0.0.0.0.0.0.0.% X , Q d < < < < Q ;.< 5 g d k , X X 5 ! 0.0.0.0.0.0.0.0.x.0.0.0.0.0.0.",
"0.0.0.0.0.0.0.0.0.0.0.0.0.0.0.0.0.0.0.0.0.0.0.0.0.0.0.0.% ; M.0.0.0.0.0.0.0.0.0.0.0.0.0...k X X *Xx.0.0.0.0.0.0.0.0.0.0.0.0.0.0.",
"0.0.0.0.0.0.0.0.0.0.0.0.0.0.0.0.0.0.0.0.0.0.0.0.0.0.0.0.X , 0.0.0.0.0.0.0.0.0.0.0.0.0.0.w.E X d *X0.0.0.0.0.0.0.0.0.0.0.0.0.0.0.",
"0.0.0.0.0.0.0.0.0.0.0.0.0.0.0.0.0.0.0.0.0.0.0.0.0.0.3 ; . Q 0.0.0.0.0.0.0.0.0.0.0.0.0.0.0.R X < Q 0.0.0.0.0.0.0.0.0.0.0.0.0.0.0.",
"0.0.0.0.0.0.0.0.0.0.0.0.0.0.0.0.0.0.0.0.0.0.0.0.0.0.T s s w.0.0.0.0.0.0.0.0.0.0.0.0.0.0.0.0.T d T 0.0.0.0.0.0.0.0.0.0.0.0.0.0.0.",
"0.0.0.0.0.0.0.0.0.0.0.0.0.0.0.0.0.0.0.0.0.0.0.0.t.0.0.0.0.0.0.0.0.0.0.0.0.0.0.0.0.0.0.0.0.0.0.e.0.0.0.e.0.0.0.0.0.0.0.0.0.0.0.0.",
"0.0.0.0.0.0.0.0.0.0.0.0.0.0.0.0.0.0.0.0.0.0.0.0.0.0.0.0.0.0.0.0.0.0.0.0.0.0.0.0.0.0.0.0.0.0.0.0.0.0.0.0.0.0.0.0.0.0.0.0.0.0.0.0.",
"0.0.0.0.0.0.0.0.0.0.0.0.0.0.0.0.0.0.0.0.0.0.0.0.0.0.0.0.0.0.0.0.0.0.0.0.0.0.0.0.0.0.0.0.0.0.0.0.0.0.0.0.0.0.0.0.0.0.0.0.0.0.0.0.",
"0.0.0.0.0.0.0.0.0.0.0.0.0.0.0.0.0.0.0.0.0.0.0.0.0.0.0.0.0.0.0.0.0.0.0.0.0.0.0.q.q.0.0.0.0.0.0.0.0.0.0.0.0.0.0.0.0.0.0.0.0.0.0.0.",
"0.0.0.0.0.0.0.0.0.0.0.0.0.0.0.0.0.0.0.0.0.0.0.0.0.0.0.0.0.0.0.0.0.0.0.0.0.0.0.0.0.0.0.0.0.0.0.0.0.0.0.0.0.0.0.0.0.0.0.0.0.0.0.0.",
"aX0.0.0.0.0.0.0.0.0.0.0.0.0.0.0.0.0.0.0.0.0.0.0.0.0.0.0.0.0.0.0.0.0.0.0.0.0.0.0.0.0.0.0.0.0.0.0.0.0.0.0.0.0.0.0.0.0.0.0.0.0.0.0.",
"aX0.0.0.0.0.0.0.0.0.0.0.0.0.0.0.0.0.0.0.0.0.0.0.0.0.0.0.0.0.0.0.0.0.0.0.0.0.0.0.0.0.0.0.0.0.0.0.0.0.0.0.0.0.0.0.0.0.0.0.0.0.0.0."
};
