/* XPM */
static char *_34057307a6e4a0bb20c43ceb95cf629QjhFZpY60z2M7S1C[] = {
/* columns rows colors chars-per-pixel */
"64 64 181 2 ",
"   c #080F2C",
".  c #0D1427",
"X  c #0F152B",
"o  c #11172B",
"O  c #141A2D",
"+  c #1A1F2E",
"@  c #161D30",
"#  c #191F31",
"$  c #1D232D",
"%  c #1C2233",
"&  c #24292D",
"*  c #2D332F",
"=  c #30362E",
"-  c #222533",
";  c #282733",
":  c #2B2B32",
">  c #202638",
",  c #252A3B",
"<  c #2A2F3D",
"1  c #322D36",
"2  c #2B3130",
"3  c #363335",
"4  c #383436",
"5  c #353B31",
"6  c #3D3A35",
"7  c #3C3539",
"8  c #43393A",
"9  c #44393B",
"0  c #3E442F",
"q  c #3D4433",
"w  c #484D34",
"e  c #4D4439",
"r  c #52443D",
"t  c #4E5531",
"y  c #5A553A",
"u  c #695A3E",
"i  c #5F6534",
"p  c #68683A",
"a  c #766C3F",
"s  c #767C38",
"d  c #292F41",
"f  c #2D3242",
"g  c #313543",
"h  c #343845",
"j  c #393E4C",
"k  c #3E414D",
"l  c #3D4251",
"z  c #40444F",
"x  c #5A4840",
"c  c #464A55",
"v  c #454A56",
"b  c #4A4E5B",
"n  c #4D515C",
"m  c #55575E",
"M  c #674F45",
"N  c #6F5447",
"B  c #705347",
"V  c #7B5B4A",
"C  c #665E5E",
"Z  c #726140",
"A  c #7C6843",
"S  c #565962",
"D  c #565A66",
"F  c #595B62",
"G  c #5F6167",
"H  c #5E616D",
"J  c #63656B",
"K  c #686A6F",
"L  c #656973",
"P  c #6D6E73",
"I  c #6D717C",
"U  c #727376",
"Y  c #76777B",
"T  c #88654C",
"R  c #8B6C4B",
"E  c #857146",
"W  c #8F7647",
"Q  c #987C4A",
"!  c #976D52",
"~  c #9D7154",
"^  c #A27455",
"/  c #A47854",
"(  c #AC7B57",
")  c #AA7659",
"_  c #AD7B58",
"`  c #B07E59",
"'  c #04A904",
"]  c #2CA42C",
"[  c #2BA82B",
"{  c #37A637",
"}  c #3AA73B",
"|  c #4EA34E",
" . c #46AA48",
".. c #4BAC4B",
"X. c #6C956E",
"o. c #65A767",
"O. c #808637",
"+. c #858B39",
"@. c #8D943A",
"#. c #949B39",
"$. c #9EA53B",
"%. c #A3A93D",
"&. c #B5BB3F",
"*. c #BAC23C",
"=. c #9F9D40",
"-. c #AC8B4D",
";. c #A89746",
":. c #B5974D",
">. c #AF8056",
",. c #B28357",
"<. c #B68B55",
"1. c #BC8D57",
"2. c #B58458",
"3. c #B79054",
"4. c #BB9352",
"5. c #BD9A51",
"6. c #AEB541",
"7. c #BBBF40",
"8. c #AE8062",
"9. c #B78C6E",
"0. c #C29556",
"q. c #C79C55",
"w. c #C89E55",
"e. c #C2A44F",
"r. c #C5AD4D",
"t. c #C3BC46",
"y. c #CEBC4D",
"u. c #D7BC4F",
"i. c #C0A251",
"p. c #CEA554",
"a. c #CFA953",
"s. c #D1A755",
"d. c #D3AC54",
"f. c #D4B352",
"g. c #D8BD50",
"h. c #CEB962",
"j. c #BCC165",
"k. c #C0C740",
"l. c #C5CB43",
"z. c #D6C54C",
"x. c #DCCE4B",
"c. c #D4DB47",
"v. c #DCDC45",
"b. c #DFD34A",
"n. c #DDD848",
"m. c #D8DE59",
"M. c #E0DF46",
"N. c #E0D64A",
"B. c #E2DB49",
"V. c #DBE242",
"C. c #E3E346",
"Z. c #E6EB44",
"A. c #E8EE44",
"S. c #EAF144",
"D. c #EBF24C",
"F. c #EBF153",
"G. c #ECF25A",
"H. c #CFD46D",
"J. c #E7E66E",
"K. c #EBF165",
"L. c #EEF46B",
"P. c #F0F57E",
"I. c #777A82",
"U. c #7C7E83",
"Y. c #7E828E",
"T. c #818182",
"R. c #A7A9B0",
"E. c #D4B9A8",
"W. c #F5F989",
"Q. c #F2F694",
"!. c #DDC8BB",
"~. c #F9FCBD",
"^. c #C5C6CC",
"/. c #E4D4CA",
"(. c #FAFBD1",
"). c #F2EBE3",
"_. c #F9FBE6",
"`. c #FDFEEE",
"'. c #EEEEF0",
"]. c ivory",
"[. c #FFFFFE",
/* pixels */
"' ' ' ' ' ' ' ' ' ' ' ' ' ' ' ' ' ' ' ' ' ' ' ' ' ' ' ' o.' ' ' ' ' ' ' ' ' ' ' ' ' ' ' ' ' ' ' ' ' ' ' ] ' ' ' ' ' ' ' ' ' ' ' ",
"' ' ' ' ' ' ' ' ' ' ' ' ' ' ' ' ' ' ' ' ' ' ' ' ' ' ' ' ' ' ' ' ' ' ' ' ' ' ' ' ' ' ' ' ' ' ' ' ' ' ' ' ' ' ' ' ' ' ' ' ' ' ' ' ",
"' ' ' ' ' ' ' ' ' ' ' ' ' ' ' ' ' ' ' ' ' ' ' ' ' ' ' ' ' ' ' ' ' ' ' ' ' ' ' ' ' ' ' ' ' ' ' ' ' ' ' ' ' ' ' ' ' ' ' ' ' ' ' ' ",
"' ' ' ' ' ' ' ' ' ' ' ' ' ' ' ' ' ' ' ' ' ' ' ' ' ' ' ' ' ' ' ' ' ' ' ' ' ' ' ' ' ' ' ' ' ' ' ' ' ' ' ' ' ' ' ' ' ' ' ' ' ' ' ' ",
"' ' ' ' ' ' ' ' ' ' ' ' ' ' ' ' ' ' ' ' ' ' ' ' ' ' ' ' ' ' ' ' ' ' ' ' ' ' ' ' ' ' ' ' ' ' ' ' ' ' ' ' ' ' ' ' ' ' ' ' ' ' ' ' ",
"' ' ' ' ' ' ' ' ' ' ' ' ' ' ' ' ' ' ' ' ' ' ' ' ' ' ' ' ' ' ' ' ' ' ' ' ' ' ' ' ' ' ' ' ' ' ' ' ' ' ' ' ' ' ' ' ' ' ' ' ' ' ' ' ",
"' ' ' ' ' ' ' ' ' ' ' ' ' ' ' ' ' ' ' ' ' ' ' ' ' ' ' ' ' ' ' ' ' ' ' ' ' ' ' ' ' ' ' ' ' ' ' ' ' ' ' ' ' ' ' ' ' ' ' ' ' ' ' ' ",
"' ' ' ' ' ' ' ' ' ' ' ' ' ' ' ' ' ' ' ' ' ' ' ' ' ' ' ' ' ' ' ' ' ' ' ' ' ' ' ' ' ' ' ' ' ' ' ' ' ' ' ' ' ' ' ' ' ' ' ' ' ' ' ' ",
"' ' ' ' ' ' ' ' ' ' ' ' ' ' ' ' ' ' ' ' ' ' ' ' ' ' ' [ ' ' ' ' ' ' ' ' ' ' ' ' ' ' ' ' ' ' ' ' ' ' ' ' ' ' ' ' ' ' ' ' ' ' ' ' ",
"' ' ' ' ' ' ' ' ' ' ' ' ' ' ' ' ' ' ' ' ' ' ' ' ' ' ' ' ' ' ' ' ' ' ' ' ' ' ' ' ' ' ' ' ' ' ' ' ' ' ' ' ' ' ' ' ' ' ' ' ' ' ' ' ",
"' ' ' ' ' ' ' ' ' ' ' ' ' ' ' ' ' ' ' ' ' ' ' ' ' ' ' ' ' ' ' ' ' ' ' ' ' ' ' ' ' ' ' ' ' ' ' ' ' ' ' ' ' ' ' ' ' ' ' ' ' ' ' ' ",
"' ' ' ' ' ' ' ' ' ' ' ' ' ' ' ' ' ' ' ' ' ' ' ' ' ' ' ' ' ' ' ' ' ' ' ' ' ' ' D z c ' ' ' ' ' ' ' ' ' ' ' ' ' ' ' ' ' ' ' ' ' ' ",
"' ' ' ' ' ' ' ' ' ' ' ' ' ' ' ' ' ' ' ' ' ' ' ' ' ' ' ' ' ' ' ' ' ' ' ' ' ' H . O + g J ' ' ' ' ' ' ' ' ' ' ' ' ' ' ' ' ' ' ' ' ",
"' ' ' ' ' ' ' ' ' ' ' ' ' ' ' ' ' ' ' ' ' ' ' ' ' ' ' ' ' ' ' ' ' ' ' ' ' ' H 0 s $ $ > ] ' ' ' ' ' ' ' ' ' ' ' ' ' ' ' ' ' ' ' ",
"' ' ' ' ' ' ' ' ' ' ' ' ' ' ' ' ' ' ' ' ' ' ' ' ' ' ' ' ' ' ' ' ' ' ' ' ' ' H 0 V.V.$.* g ' ' ' ' ' ' ' ' ' ' ' ' ' ' ' ' ' ' ' ",
"' ' ' ' ' ' ' ' ' ' ' ' ' ' ' ' ' ' ' ' ' ' ' ' ' ' ' ' ' ' ' ' ' | ' ' ' ' n 0 C.C.Z.V.t D ' ' ' ' ' ' ' ' ' ' ' ' ' ' ' ' ' ' ",
"' ' ' ' ' ' ' ' ' ' ' ' ' ' ' ' ' ' ' ' ' ' ' ' ' ' ' ' ' ' ' ' ' ' ' ' G % O w x.a.B.S.t.4 n ' ' ' ' ' ' ' ' ' ' ' ' ' ' ' ' ' ",
"' ' ' ' ' ' ' ' ' ' ' ' ' ' ' ' ' ' ' ' ' ' ' ' ' ' ' ' ' ' ' ' ' ' ' ' h o . & ;.d.b.B.d.Z O ' ' ' ' ' ' ' ' ' ' ' ' ' ' ' ' ' ",
"' ' ' ' ' ' ' ' ' ' ' ' ' ' ' ' ' ' ' ' ' ' ' ' ' ' ' ' ' ' ' ' ' ' ' J % c R.Y.3 a n.d.s.-.: ' ' ' ' ' ' ' ' ' ' ' ' ' ' ' ' ' ",
"' ' ' ' ' ' ' ' ' ' ' ' ' ' ' ' ' ' ' ' ' ' ' ' ' ' ' ' ' ' ' b b b j , X L [.[.I o a w.y e - ' ' ' ' ' ' ' ' ' ' ' ' ' ' ' ' ' ",
"' ' ' ' ' ' ' ' ' ' ' ' ' ' ' ' ' ' ' ' ' ' ' ' ' ' ' ' ' D , o $ $ $ & + > R.[.'.n + 3 # % S Y ' ' ' ' ' ' ' ' ' ' ' ' ' ' ' ' ",
"' ' ' ' ' ' ' ' ' ' ' ' ' ' ' ' ' ' ' ' ' ' ' ' ' ' ' F , @ $ q l.m.m.c.i & , ^._.H.= o l } X.' ' ' ' ' ' ' ' ' ' ' ' ' ' ' ' ' ",
"' ' ' ' ' ' ' ' ' ' ' ' ' ' ' ' ' ' ' ' ' ' ' | { | ' , O + +.Z.Q.[.[.~.K.6.6 % p S.$.o l ' ' ' ' ' ' ' ' ' ' ' ' ' ' ' ' ' ' ' ",
"' ' ' ' ' ' ' ' ' ' ' ' ' ' ' ' ' ' ' ' ' ' ' ' ' ' ' > O p Z.F.`.[.[.[.`.F.x.y + O.s O < ' ' ' ' ' ' ' ' ' ' ' ' ' ' ' ' ' ' ' ",
"' ' ' ' ' ' ' ' ' ' ' ' ' ' ' ' ' ' ' ' ' ' ' ' ' ' S X O k.S.F.`.[.[.[.`.F.S.;.O O O O b ' ' ' ' ' ' ' ' ' ' ' ' ' ' ' ' ' ' ' ",
"' ' ' ' ' ' ' ' ' ' ' ' ' ' ' ' ' ' ' ' ' ' ' ' ' ' f 5 #.v.S.F.`.[.E./.`.F.A.e.e O O k Y ' ' ' ' ' ' ' ' ' ' ' ' ' ' ' ' ' ' ' ",
"' ' ' ' ' ' ' ' ' ' ' ' ' ' ' ' ' ' ' ' ' ' ' ' P h X y S.S.Z.F.`.!.) E.].F.S.N.:.E $ F T.' ' ' ' ' ' ' ' ' ' ' ' ' ' ' ' ' ' ' ",
"' ' ' ' ' ' ' ' ' ' ' ' ' ' ' ' ' ' ' ' ' c f j # O : 7.C.i q q C 8.9.)._.F.S.C.s.5.- , U ' ' ' ' ' ' ' ' ' ' ' ' ' ' ' ' ' ' ' ",
"' ' ' ' ' ' ' ' ' ' ' ' ' ' ' ' ' ' ' ' m + o $ 2 x / p.p O + ; O B ` h.F.S.S.C.s.4.- % P ' ' ' ' ' ' ' ' ' ' ' ' ' ' ' ' ' ' ' ",
"' ' ' ' ' ' ' { { { ' ' ' ' ' ' ' ' ' ' # = 0 #.M.p.0.Q + + A 5.w E _ i.Z.S.S.C.p.5.4 % U.' ' ' ' ' ' ' ' ' ' ' ' ' ' ' ' ' ' ' ",
"' ' ' ' ' ' ' ' ' ' ' ' ' ' ' ' ' ' ' f 2 j.W.P.F.u.d.Q O : -.d.Z.Z.r.5.n.S.S.b.p.s.W %  .' ' ' ' ' ' ' ' ' ' ' ' ' ' ' ' ' ' ' ",
"' ' ' ' ' ' ' ' ' ' ' ' ' ' ' ' ' ' c + $.~.[.[.L.S.g.Q + O 8 5.B.S.S.S.S.S.A.f.p.s.W %  .' ' ' ' ' ' ' ' ' ' ' ' ' ' ' ' ' ' ' ",
"' ' ' ' ' ' ' ' ' ' ' ' ' ' ' ' ' ' + O.L._.[.[.L.S.B.;.o O O e p &.S.S.S.S.N.a.p.s.T %  .' ' ' ' ' ' ' ' ' ' ' ' ' ' ' ' ' ' ' ",
"' ' ' ' ' ' ' ' ' ' ' ' ' ' ' ' ' c + *.W.[.[.[.J.e.n.V.%.5 O O X q r.N.S.S.z.p.0.2.V %  .' ' ' ' ' ' ' ' ' ' ' ' ' ' ' ' ' ' ' ",
"' ' ' ' ' ' ' ' ' ' ' ' ' ' ' ' ' > $ *.W.[.(.L.B.( 3.C.@.+ p ;.: + -.d.f.f.a.q.` _ V %  .' ' ' ' ' ' ' ' ' ' ' ' ' ' ' ' ' ' ' ",
"' ' ' ' ' ' ' ' ' ' ' ' ' ' ' ' ' > u B.D.G.F.S.M.,._ R $ 5 V.z.A + -.0.` _ ` _ _ _ N % o.' ' ' ' ' ' ' ' ' ' ' ' ' ' ' ' ' ' ' ",
"' ' ' ' ' [ ' ' ' ' ' ' ' ' ' ' ' > Z f.A.S.S.S.S.z.,.T 1 5 *.&.: + :.d.1._ _ _ _ T - < ' ' ' ' ' ' ' ' ' ' ' ' ' ' ' ' ' ' ' ..",
"' ' ' ' ' ' ' ' ' ' ' ' ' ' ' ' ' d Z f.A.S.S.S.S.S.i.) ) x 8 ; O q c.B.a.2.( _ ! 1 O S T.' ' ' ' ' ' ' ' ' ' ' ' ' ' ' ' ' ' ' ",
"' ' ' ' ' ' ' ' ' ' ' ' ' ' ' ' ' d Z f.A.A.S.S.S.v.<.) ) _ _ 8   @.S.S.u.0._ ^ 7 O O S T.' ' ' ' ' ' ' ' ' ' ' ' ' ' ' ' ' ' ' ",
"' ' ' ' ' ' ' ' ' ' ' ' ' ' ' ' ' d Z d.N.S.S.S.S.y.) <.y.y.y.=.+.k.S.S.u.0._ ~ M ; O F T.' ' ' ' ' ' ' ' ' ' ' ' ' ' ' ' ' ' ' ",
"' ' ' ' ' ' ' ' ' ' ' ' ' ' ' ' ' d Z s.d.M.S.S.S.z.( x.S.S.S.S.S.S.S.S.u.0._ _ ` V + f U ' ' ' ' ' ' ' ' ' ' ' ' ' ' ' ' ' ' ' ",
"' ' ' ' ' ' ' ' ' ' ' ' ' ' ' ' ' J : -.s.f.Z.S.S.C.n.A.S.S.S.S.S.S.S.A.u.0._ _ _ ~ - # P ' ' ' ' ' ' ' ' ' ' ' ' ' ' ' ' ' ' ' ",
"' ' ' ' ' ' ' ' ' ' ] ' ' ' ' ' ' U + Q s.p.u.Z.Z.S.S.S.S.S.S.S.S.S.S.x.p.0._ _ _ ! % # P ' ' ' ' ' ' ' ' ' ' ' ' ' ' ' ' ' ' ' ",
"' ' ' ' ' ' ' ' ' ' ' ' ' ' ' ' ' T., 3 p.p.p.a.f.C.C.S.S.S.S.S.S.Z.N.a.p.` _ _ _ 9 O f T.' ' ' ' ' ' ' ' ' ' ' ' ' ' ' ' ' ' X.",
"' ' ' ' ' ' ' ' ' ' ' ' ' ' ' ' ' ' L & -.s.p.p.p.p.d.b.B.B.B.B.B.u.p.p.q._ _ _ ! 1 o U.' ' ' ' ' ' ' ' ' ' ' ' ' ' ' ' ' ' ' ' ",
"' ' ' ' ' ' ' ' ' ' ' ' ' ' ' ' ' ' I % 6 4.s.p.p.p.p.p.p.p.p.p.p.p.p.w.,._ ` / 9 O , I.' ' ' ' ' ' ' ' ' ' ' ' ' ' ' ' ' ' ' ' ",
"' ' ' ' ' ' ' ' ' ' ' ' ' ' ' ' ' ' ' H O r 4.s.p.p.p.p.p.p.p.p.p.p.0.2._ ` V 9 O o z o.' ' ' ' ' ' ' ' ' ' ' ' ' ' ' ' ' ' ' ' ",
"' ' ' ' ' ' ' ' ' ' ' ' ' ' ' ' ' ' ' ' b O 8 R 1.p.p.p.p.p.p.p.q.<._ _ ^ r ; O O % Y ' ' ' ' ' ' ' ' ' ' ' ' ' ' ' ' ' ' ' ' ' ",
"' ' ' ' ' ' ' ' ' ' ' ' ' ' ' ' ' ' ' ' ' j O ; 4 6 R ,.4.p.4.>.( M 1 4 1 + + + c U.' ' ' ' ' ' ' ' ' ' ' ' ' ' ' ' ' ' ' ' ' ' ",
"' ' ' ' ' ' ' ' ' ' ' ' ] ' ' ' ' ' ' ' ' ' L % % @ - ; : : : ; ; % # % # f m G X.' ' ' ' ' ' ' ' ' ' ' ' ' ' ' ' ' ' ' ' ' ' ' ",
"' ' ' ' ' ' ' ' ' ' ' ' ' ' ' ' ' ' ' ' ' ' ' ' ' n d f , > > > > , F J J J K ' ' ' ' ' ' ' ' ' ' ' ' ' ' ' ' ' ' ' ' ' ' ' ' ' ",
"' ' ' ' ' ' ' ' ' ' ' ' ' ' ' ' ' ' ' ' ' ' ' ' ' ' ' ' ' ' ' ' ' ' ' ' ' ' ' ' ' ' ' ' ' ' ' ' ' ' ' ' ' ' ' ' ' ' ' ' ' ' ' ' ",
"' ' ' ' ' ' ' ' ' ' ' ' ' ' ' ' ' ' ' ' ' ' ' ' ' ' ' ' ' ' ' ' ' ' ' ' ' ' ' ' ' ' ' ' ' ' ' ' ' ' ' ' ' ' ' ' ' ' ' ' ' ' ' ' ",
"' ' ' ' ' ' ' ' ' ' ' ' ' ' ' ' ' ' ' ' ' ' ' ' ' ' ' ' ' ' ' ' ' ' ' ' ' ' ' ' ' ' ' ' ' ' ' ' ' ' ' ' ' ' ' ' ' ' ' ' ' ' ' ' ",
"' ' ' ' ' ' ' ' ' ' ' ' ' ' ' ' ' ' ' ' ' ' ' ' ' ' ' ' ' ' ' ' ' ' ' ' ' ' ' ' ' ' ' ' ' ' ' ' ' ' ' ' ' ' ' ' ' ' ' ' ' ' ' ' ",
"' ' ' ' ' ' ' ' ' ' ' ' ' ' ' ' ' ' ' ' ' ' ' ' ' ' ' ' ' ' ' ' ' ' ' ' ' ' ' ' ' ' ' ' ' ' ' ' ' ' ' ' ' ' ' ' ' ' ' ' ' ' ' ' ",
"' ' ' ' ' ' ' ' ' ' ' ' ' ' ' ' ' ' ' ' ' ' ' ' ' ' ' ' ' ' ' ' ' ' ' ' ' ' ' ' ' ' ' ' ' ' ' ' ' ' ' ' ' ' ' ' ' ' ' ' ' ' ' ' ",
"' ' ' ' ' ' ' ' ' ' ' ' ' ' ' ' ' ' ' ' ' ' ' ' ' ' ' ' ' ' ' ' ' ' ' ' ' ' ' ' ' ' ' ' ' ' ' ' ' ' ' ' ' ' ' ' ' ' ' ' ' ' ' ' ",
"' ' ' ' ' ' ' ' ' ' ' ' ' ' ' ' ' ' ' ' ' ' ' ' ' ' ' ' ' ' ' ' ' ' ' ' ' ' ' ' ' ' ' ' ' ' ' ' ' ' ' ' ' ' ' ' ' ' ' ' ' ' ' ' ",
"' ' ' ' ' ' ' ' ' ' ' ' ' ' ' ' ' ' ' ' ' ' ' ' ' ' ' ' ' ' ' ' ' ' ' ' ' ' ' ' ' ' ' ' ' ' ' ' ' ' ' ' ' ' ' ' ' ' ' ' ' ' ' ' ",
"' ' ' ' ' ' ' ' ' ' ' ' ' ' ' ' ' ' ' ' ' ' ' ' ' ' ' ' ' ' ' ' ' ' ' ' ' ' ' ' ' ' ' ' ' ' ' ' ' ' ' ' ' ' ' ' ' ' ' ' ' ' ' ' ",
"' ' ' ' ' ' ' ' ' ' ' ' ' ' ' ' ' ' ' ' ' ' ' ' ' ' ' ' ' ' ' ' ' ' ' ' ' ' ' ' ' ' ' ' ' ' ' ' ' ' ' ' ' ' ' ' ' ' ' ' ' ' ' ' ",
"' ' ' ' ' ' ' ' ' ' ' ' ' ' ' ' ' ' ' ' ' ' ' ' ' ' ' ' ' ' ' ' ' ' ' ' ' ' ' ' ' ' ' ' ' ' ' ' ' ' ' ' ' ' ' ' ' ' ' ' ' ' ' ' ",
"' ' ' ' ' ' ' ' ' ' ' ' ' ' ' ' ' ' ' ' ' ' ' ' ' ' ' ' ' ' ' ' ' ' ' ' ' ' ' ' ' ' ' ' ' ' ' ' ' ' ' ' ' ' ' ' ' ' ' ' ' ' ' ' "
};
