/* XPM */
static char *d4a853629a514c4b9c1c02e89fbce291zz8ISss0g63GqvSs[] = {
/* columns rows colors chars-per-pixel */
"64 64 210 2 ",
"   c #182635",
".  c #1C2738",
"X  c #1B2C3B",
"o  c #1C353E",
"O  c #262736",
"+  c #242D3C",
"@  c #312E38",
"#  c #26353C",
"$  c #3C343B",
"%  c #41373D",
"&  c #45393E",
"*  c #4B3D3E",
"=  c #2A463C",
"-  c #1E2E41",
";  c #1E3243",
":  c #1C3B46",
">  c #1D3E49",
",  c #213345",
"<  c #273943",
"1  c #2C3845",
"2  c #22354A",
"3  c #233A4D",
"4  c #343643",
"5  c #333947",
"6  c #3B3D47",
"7  c #343B49",
"8  c #253C51",
"9  c #293C50",
"0  c #493D42",
"q  c #1E4343",
"w  c #1D444C",
"e  c #1E484F",
"r  c #1F4750",
"t  c #1E4A51",
"y  c #1E5156",
"u  c #1F5B5E",
"i  c #23434D",
"p  c #2C434D",
"a  c #28494A",
"s  c #364847",
"d  c #34414D",
"f  c #3C414F",
"g  c #235C4D",
"h  c #295849",
"j  c #254556",
"k  c #214C53",
"l  c #2B4B54",
"z  c #274659",
"x  c #29465C",
"c  c #254C5A",
"v  c #2A4A5F",
"b  c #3E4753",
"n  c #394955",
"m  c #235355",
"M  c #2D5654",
"N  c #245B53",
"B  c #22545A",
"V  c #2C515C",
"C  c #225B5E",
"Z  c #36535B",
"A  c #2B674E",
"S  c #376344",
"D  c #3E7647",
"F  c #256453",
"G  c #266956",
"H  c #2A6D55",
"J  c #22605E",
"K  c #276B5C",
"L  c #356858",
"P  c #2B775B",
"I  c #367B55",
"U  c #2A4E60",
"Y  c #275561",
"T  c #295362",
"R  c #245D61",
"E  c #295B65",
"W  c #285F68",
"Q  c #395B61",
"!  c #246464",
"~  c #2C6463",
"^  c #266C65",
"/  c #2C6C64",
"(  c #266368",
")  c #28646A",
"_  c #266D6C",
"`  c #286A6C",
"'  c #267063",
"]  c #2B7465",
"[  c #2C7C66",
"{  c #27716E",
"}  c #28756D",
"|  c #297B6D",
" . c #277371",
".. c #287370",
"X. c #40444F",
"o. c #49484D",
"O. c #574746",
"+. c #445B4E",
"@. c #444A55",
"#. c #464D56",
"$. c #45535C",
"%. c #4D545E",
"&. c #465A5A",
"*. c #52555E",
"=. c #55595F",
"-. c #644D47",
";. c #6D534A",
":. c #75584B",
">. c #436746",
",. c #586549",
"<. c #507848",
"1. c #4A6E50",
"2. c #7F675F",
"3. c #707E57",
"4. c #4B5A63",
"5. c #545C64",
"6. c #595C64",
"7. c #595E6A",
"8. c #556368",
"9. c #5D636A",
"0. c #586A71",
"q. c #63666D",
"w. c #6A6668",
"e. c #6A6C6E",
"r. c #607568",
"t. c #646771",
"y. c #646972",
"u. c #6B6E74",
"i. c #617475",
"p. c #6E747A",
"a. c #737275",
"s. c #73777C",
"d. c #7D7D7E",
"f. c #86644F",
"g. c #816051",
"h. c #936D52",
"j. c #9C7353",
"k. c #85746E",
"l. c #04A904",
"z. c #05943D",
"x. c #1F8D43",
"c. c #34894A",
"v. c #2D924A",
"b. c #35934E",
"n. c #28815E",
"m. c #3B8B55",
"M. c #3D9553",
"N. c #3A9459",
"B. c #2C8362",
"V. c #2D8E66",
"C. c #2B836C",
"Z. c #2D8C6B",
"A. c #348567",
"S. c #3A8B66",
"D. c #328C69",
"F. c #2F956A",
"G. c #329067",
"H. c #3C9565",
"J. c #369B67",
"K. c #3A9D65",
"L. c #319669",
"P. c #339969",
"I. c #3EA164",
"U. c #42844D",
"Y. c #448E55",
"T. c #4D895F",
"R. c #48945A",
"E. c #439B5B",
"W. c #559651",
"Q. c #649B51",
"!. c #4FA457",
"~. c #4DA55F",
"^. c #4CAC5E",
"/. c #56AC55",
"(. c #51AE5D",
"). c #54B25B",
"_. c #5AB659",
"`. c #5CB859",
"'. c #7EAF57",
"]. c #65BA5A",
"[. c #6BBC5C",
"{. c #74BF5B",
"}. c #419B63",
"|. c #549864",
" X c #688773",
".X c #768779",
"XX c #6D9577",
"oX c #43A562",
"OX c #47A861",
"+X c #49A960",
"@X c #78C15C",
"#X c #829550",
"$X c #8BBB5B",
"%X c #96B157",
"&X c #A0B659",
"*X c #88C55E",
"=X c #98CB5F",
"-X c #9BCC60",
";X c #A1CE60",
":X c #A6D061",
">X c #A9D161",
",X c #B7D462",
"<X c #BBD663",
"1X c #BDD963",
"2X c #777A82",
"3X c #7B7D82",
"4X c #7E8380",
"5X c #809987",
"6X c #848B91",
"7X c #959599",
/* pixels */
"l.l.l.l.l.l.l.l.l.l.l.l.l.l.l.l.l.l.l.l.l.l.l.l.l.l.l.l.l.l.M.l.l.l.|.l.l.l.l.l.l.l.l.l.l.l.l.l.l.l.l.l.l.l.l.l.l.l.l.l.l.l.l.M.",
"l.l.l.l.M.l.l.l.l.l.l.l.l.l.l.l.l.l.l.l.l.l.l.l.l.l.l.l.l.l.l.l.l.l.l.l.l.l.l.l.l.l.l.l.l.l.l.l.l.l.l.l.l.l.l.l.l.l.l.l.l.l.l.M.",
"l.l.l.l.l.l.l.l.l.l.l.l.l.l.l.l.l.l.l.l.l.l.l.l.l.l.l.l.l.l.l.*.l.l.l.l.l.l.l.l.b.l.l.l.l.l.l.l.l.l.l.l.l.l.l.l.l.l.l.l.v.l.l.l.",
"l.l.l.l.l.l.l.l.l.l.l.l.l.l.l.l.l.l.l.l.l.l.l.l.l.l.l.l.l.l.7Xs c.l.l.l.l.l.l.l.l.l.l.l.l.l.l.l.l.l.l.l.l.l.l.l.l.l.l.l.l.l.l.l.",
"l.l.l.l.l.l.l.l.l.l.l.l.l.l.l.l.l.l.l.l.l.l.l.l.l.l.l.l.l.l.=.#X3.l.l.l.l.l.l.l.l.l.l.l.l.l.l.l.l.l.l.l.l.l.l.l.l.l.l.b.l.l.l.l.",
"E.l.l.l.l.l.l.l.l.l.l.l.l.l.l.l.l.l.l.l.l.l.l.l.l.l.l.l.l.7X,.,X%X*.l.l.l.l.l.l.l.l.l.l.l.l.l.l.M.l.l.l.l.l.l.l.l.l.l.l.l.l.l.l.",
"l.l.l.v.l.l.l.l.l.l.l.l.l.l.l.l.l.l.l.l.l.l.l.l.l.l.l.l.l.e.&X1X<X<.l.l.l.l.l.l.l.l.l.l.l.l.l.l.l.l.l.l.l.l.l.l.l.l.l.l.l.l.l.M.",
"l.l.l.l.l.l.l.l.l.l.l.l.l.l.l.l.l.l.l.l.l.l.l.l.l.l.l.l.7X,.,X1X1X$Xl.l.l.l.l.l.l.l.l.l.l.l.l.l.l.l.l.l.l.l.l.l.l.l.l.l.l.l.l.l.",
"l.l.l.l.l.l.l.l.l.l.l.l.l.l.l.l.l.l.l.l.l.l.l.l.l.l.l.d.+.%X1X1X1X,X<.#.4Xl.l.l.l.l.l.l.l.l.l.l.l.l.l.l.l.l.l.l.l.l.l.l.l.l.l.l.",
"l.l.l.l.l.l.l.l.l.l.l.l.l.l.l.l.l.l.l.l.l.l.l.l.l.l.l.&.Q.<X;X<X;X>X$X= =.l.l.l.l.l.l.l.l.l.l.l.l.l.l.l.l.l.l.l.l.Y.Y.l.l.l.l.l.",
"l.l.l.l.l.l.l.l.l.l.l.l.l.l.l.l.l.l.l.l.l.l.l.l.l.l.3X>.:X-X=X>X{.{.>XW.d l.l.l.l.l.l.l.l.l.l.l.l.l.l.l.l.l.l.l.l.l.l.l.l.l.l.l.",
"l.l.l.l.M.l.l.l.l.l.l.l.l.l.l.l.l.l.l.l.l.l.l.l.l.a.s '.-X[.*X{.*X_.[.[.I $.l.l.l.l.l.l.l.l.l.l.l.l.l.l.l.l.l.l.l.l.l.l.l.l.l.M.",
"l.l.l.l.l.l.l.l.l.l.l.l.l.l.l.l.l.l.l.l.l.l.l.l.l.X.U.[.`._.].*X{.^.^.`.^.H @.l.l.l.l.l.l.l.l.l.l.l.l.l.l.l.l.l.l.l.l.l.l.l.l.l.",
"l.l.l.l.l.l.l.l.l.l.l.l.l.l.l.l.l.l.l.l.l.l.l.l.T.S _._.).).`.{.@X).K.Y.).^.H m.l.l.l.l.l.l.l.l.l.l.l.l.l.l.l.l.l.l.l.l.l.l.l.l.",
"l.l.l.l.l.l.l.l.l.l.l.l.l.l.l.l.l.l.l.l.l.l.b.R.L !.`.^.oX)._.@X]._.).I A E.K.P i.l.l.l.Y.l.l.l.l.l.l.l.l.l.l.l.b.l.l.l.l.l.l.l.",
"l.l.l.l.l.l.l.l.l.l.l.l.l.l.l.l.l.l.l.l.l.l.&.H I.).N.A !.`.)._._.)._.^.P q g B.n.M #.l.l.l.l.l.l.l.l.b.l.l.l.l.l.l.l.l.l.l.l.l.",
"l.l.l.l.l.l.l.l.l.l.l.l.l.l.l.l.l.l.l.l.< g n.J.m.h o I _.~.H.I.).I.oX).OXK : + s 8.l.l.l.l.l.l.l.l.l.l.l.l.l.l.l.l.l.l.l.l.l.l.",
"l.l.l.l.l.l.l.l.l.l.l.l.l.l.l.l.l.l.l.l.6Xy.&.a   X H ~.S.| }.OXI.J.F.J.OXL._ < e.l.l.l.l.l.l.l.l.l.l.l.l.l.l.l.l.l.l.l.l.l.l.M.",
"l.l.l.l.l.l.l.l.l.l.l.l.l.l.l.l.l.l.l.l.l.l.7X5 : ] K.D.C.C.J.^.I.F.F.F.P.P.Z.k 5.l.l.l.l.l.l.l.l.l.l.l.l.l.l.l.l.l.l.l.l.l.l.l.",
"l.l.l.l.l.l.l.l.l.l.l.l.l.l.l.l.l.l.l.l.l.l.X.> } F.P.L.Z.Z.F.J.oXF.F.F.F.F.F.| V q.l.l.l.l.l.l.l.l.l.l.l.l.l.l.l.l.l.l.l.l.l.l.",
"l.l.l.l.l.l.l.l.l.l.l.l.l.l.l.l.l.l.l.M.l.*.> } Z.K.+XP.F.F.P.P.F.F.F.C.F.F.L.F.' X X.v.l.l.l.l.l.l.l.l.l.l.l.l.l.l.l.l.l.l.l.l.",
"l.l.l.b.l.l.l.l.l.l.l.l.l.l.l.l.l.l.l.l.n N C.L.OX).oXF.F.F.oX+XP.P.oXS.| P.^.K.F.^ : V 5.p. Xl.l.l.l.l.l.l.l.l.l.l.l.l.l.l.l.l.",
"l.l.l.l.M.l.l.l.l.l.l.l.l.l.l.l.9.$.l.l._ C.H.).).E.N.F.I.I.+X_.+X^._.).S.S.).^.P.I.G w C y < a.l.l.l.l.l.l.l.l.l.l.l.l.l.l.l.b.",
"l.l.l.l.l.l.l.l.l.l.l.l.l.l.l.q.  : R ! B I _./.U.h B.P.).).)._._.)._.`.).H.H.).OXOXK.N < 5.d.l.l.l.l.l.l.l.l.l.l.l.l.l.l.l.l.l.",
"l.l.l.l.l.l.l.l.l.l.l.l.l.l.l.l.l.y.1 # D W.D h C C.F.oX_._.^.)._.OXH.(._.).J.K.^.K.K.Z.m s.l.l.l.l.l.l.l.l.l.l.l.l.l.l.l.l.l.l.",
"l.l.l.l.l.l.l.l.l.l.l.l.l.l.l.Y.l.l.l.8.# o w ^ Z.L.I._.).OXP.K.)._.G.| ~._.).K.P.P.F.F.| k 2Xl.l.l.l.l.l.l.l.l.b.l.l.l.l.l.l.l.",
"l.l.l.l.l.l.l.l.l.l.l.l.l.l.l.l.l.l.l.*.: ^ C.F.K.OX^.}.D.L.I.P.J.(.^.Z.C.G.^.OXP.B.B.F.F.C.C 8.l.l.l.l.l.l.l.l.l.l.l.l.l.l.M.l.",
"l.l.l.l.l.l.l.l.l.l.l.b.l.l.l.l.d.q.5 t | F.F.L.I.I.P.D.oX_._.OXF.J.^.+XL.Z.F.F.F.V.g F ] C.C.` ~ 0.l.l.l.l.l.l.l.l.l.l.l.l.l.M.",
"l.l.l.l.l.l.l.l.l.l.l.l.l.l.l.l.@.i J C.Z.C.Z.F.F.C.H.)._._._.I.P.L.L.K.K.L.F.Z.C.F.F.N   : B e i n l.l.l.l.l.l.l.l.l.l.l.l.l.l.",
"l.l.l.l.l.l.l.l.l.l.l.l.l.y.4.V C { ..} ! ' Z.Z.| S.(._._._.OXP.+XP.F.F.F.Z.F.F.K m ^ } k X 9.l.l.l.l.l.l.l.l.l.l.l.l.l.l.l.l.l.",
"l.l.l.l.l.l.l.l.l.l.l.l.l.1 w y B m > : C | | } }.)._.)._.+XP.OXoXF.F.F.Z.Z.| C.F.P g m B K L 9.u.l.l.v.l.l.l.l.l.l.l.l.l.l.l.l.",
"l.l.l.l.l.l.l.l.l.l.l.l.l.l.u.%.4   e ^ C.Z.A.~._.).OXJ.oXP.P.K.L.F.F.F.Z.| } } C.F.F.] j 3   1  Xl.l.l.l.l.l.l.l.l.l.l.l.l.l.l.",
"l.l.l.l.l.l.l.l.l.l.l.l.l.l.l.7Xd k } Z.F.G.^.OXI.+XOXL.F.F.F.F.F.L.P.F.F.F.C.C.| C.F.F.~ x ; + 3Xl.l.l.l.l.l.l.l.l.l.l.l.l.l.M.",
"l.l.l.l.l.l.l.l.l.l.l.q.6X6X0.Q ! | Z.F.F.L.P.F.P.L.F.F.F.F.F.F.F.L.oXP.F.F.I.P.F.Z.F.F.B.~ W C Z l.l.l.l.l.l.l.l.l.l.l.l.l.l.M.",
"l.l.l.l.l.l.l.l.l.l.l.f X t u ^ | C.C.| | Z.F.F.Z.| Z.F.F.F.F.C.C.C.oX+XP.P.I.OXP.F.F.F.F G }  .{ C Q s.l.l.l.l.l.l.l.l.l.l.l.l.",
"l.l.l.l.l.l.l.l.l.l.l.l.5.6 +   : B ^ | F.K.I.L.Z.F.P.P.P.J.F.C.{ | K._.^.).OX).^.P.F.V.V.N : e B ` C o 6.l.l.l.l.l.l.l.l.l.l.l.",
"l.l.l.l.l.l.l.l.l.l.l.l.l.9.7 , z ` Z.L.I.^.K.F.F.J.^.K.^.K.F.F.} Z.P.)._.(._._._.OXL.G G C.^ t : p #.y.l.l.l.l.l.l.l.l.l.l.l.l.",
"l.l.l.l.l.l.l.l.l.s.9.$.d 3 z E ] Z.P.I.K.L.F.F.K.).OXOX+XF.F.F.C.C.F.I.(.P.OXoX)._.I.Z.m k F m k p 3Xl.l.l.l.l.l.l.l.l.l.l.l.l.",
"l.l.l.l.l.l.l.l.l.o B ! ( _ [ Z.Z.C.] } _ Z.F.I.).OXP.oXP.Z.[ F.F.F.F.F.oXK.Z.F.I._.I.F._ x 8 . 7.l.l.l.l.l.l.l.l.l.l.l.l.l.l.M.",
"l.l.l.l.l.l.l.l.l.l.l k ! ! ! C m k 3 v ] L.OX).oXL.F.F.F.~ ) F.J.F.F.F.L.L.| } Z.K.P.F.C.T v 2 *.l.l.l.l.l.l.l.l.l.l.l.l.l.l.l.",
"l.l.l.l.l.l.l.l.l.l.2X. X     ; 3 z x ~ P.OXOXJ.C./ C.F.] E _ Z.oXK.Z.] Z.F.Z.{ } C.Z.F.F.[ U x - #.d.d.l.l.l.l.l.l.l.l.l.l.l.l.",
"l.l.l.l.l.l.l.X.@.d 9 8 2 - 3 x v T / G.oXH.B.E E [ F.C.{ { { | J.oXZ.T E B.F.| { { { | | | ) v x , b q.l.l.l.l.l.l.l.l.l.l.l.l.",
"l.l.l.l.l.l.l.l.b , ; X 3 v U v ~ [ ] ~ E V v ~ C.Z.C.C.| { { | C.P.L.| ) ) ] C.} _ ` { R ) _ E v v C k n 4.y.y.u.l.l.l.l.l.l.l.",
"l.b.l.l.l.l.l.l.%.; j V W ` ) T v v x x x v T ) { C.F.C.{ { { C.Z.C.F.F.| { { { { _ E ` ! i c ) ) E T ` _ C y > 5 l.l.l.l.l.l.M.",
"l.l.l.l.l.l.f e C `  .{ { _ ) T 8 x U T W ` _ { | C.| { ) _ { } C.| } C.C.{ { _ _ { ` ) { ! > ; k R R B w 3 $.q.l.l.l.l.l.l.l.l.",
"l.l.l.l.l.l.r.#.p k B c j j 3 - , x T W ` ` _ { ` ) { ` E _ { { { } { { { { { ) E _ { } } C.} k X + 5 5 *.R.l.l.l.l.l.l.l.l.l.l.",
"l.l.l.l.l.l.l.l.l.l.l.l.#.O   e T T U x v v T T U E _ T ) ) ` { { ) ` ) { { { _ Y k _ C.Z.Z.Z.Z.[ K m i d m.l.l.l.l.l.l.l.l.l.l.",
"l.l.l.l.l.l.l.l.l.l.l.l.n i C ) E E U v U T j 3 T _ _ ) ` U )  .` U T T ) { { { { B t ` | C.Z.C.| | ^ B $.l.l.l.l.l.l.l.l.l.l.l.",
"l.l.l.l.M.l.l.l.l.e.< e u _  .{ ) W W ( C r . 2 T ` ` W z x ) _ c z v x j ( W _ { { C : t R C C k w n l.l.l.l.l.l.l.l.l.l.l.l.M.",
"l.l.l.l.l.l.l.l.l..Xs.6.5.p i e w e k Z b   - x v v v j X z W T , 3 T T 2 , x T ) _ ` Y k w ; ;   y.l.l.l.l.l.l.l.l.l.l.l.l.l.l.",
"XXl.l.l.l.l.l.l.l.l.R.l.l.l.l.l.2X7.t.p.%.i ! W T v 3   ; T v 3 @ + Y _ T 2 - , 2 > j W _ ` ! e @.l.l.l.l.l.l.l.l.l.l.l.l.l.l.l.",
"l.l.l.l.l.l.l.l.l.l.l.l.l.l.l.|.l.l.b j c ( { _ C ; X : ` _ j   $ & , ! { ` W Y C ;   , 3 $.4.p.l.l.l.l.l.l.l.l.l.l.l.l.l.l.l.l.",
"l.l.l.l.l.l.l.l.l.l.l.l.l.l.l.l.l.l.5X5.d l l ; # 7 X k C k @ * $ ;.& + w B C y : l.l.l.l.l.l.l.l.l.l.l.l.l.l.l.l.l.l.l.l.l.l.l.",
"l.l.l.l.l.l.l.l.l.l.l.l.l.l.l.l.l.l.l.l.l.|.z.6.@.4 O O.@ % g.f.;.h.0 $ 4 f + 6 l.l.l.l.l.l.l.l.l.l.l.l.l.l.l.l.l.l.l.l.l.l.l.l.",
"l.l.l.l.l.l.l.l.l.l.l.l.l.l.l.l.l.l.l.l.l.l.XX6.6 % & h.* O.g.;.O.j.* O.O.l.l.l.l.l.l.l.l.l.l.l.l.l.l.l.l.l.l.l.l.l.l.l.l.l.l.M.",
"l.l.l.l.l.l.l.l.l.l.l.l.l.l.l.l.l.l.l.l.l.l.l.l.w.& :.:.@ O.0 :.& ;.-.0 o.o.l.l.l.l.l.l.l.l.l.l.l.l.l.l.l.l.l.l.l.l.l.l.l.l.l.l.",
"l.l.l.l.l.l.l.l.l.l.l.l.l.l.l.l.l.l.l.l.l.l.l.b.l.l.2.$ O.o.*.k.k.1.c.x.l.l.l.l.l.l.l.l.l.l.l.l.l.l.l.l.l.l.l.l.l.l.l.l.l.l.l.l.",
"l.l.l.l.l.l.l.l.l.l.l.l.l.l.l.l.l.l.l.l.l.l.l.l.l.l.l.l.l.l.l.l.l.l.l.l.l.l.l.l.l.l.l.l.l.l.l.l.l.l.l.l.l.l.l.l.l.l.l.l.l.l.l.l.",
"l.l.l.l.l.l.l.l.R.l.l.l.l.l.l.l.l.l.l.l.l.l.l.l.l.l.l.l.l.l.l.l.l.l.l.l.l.l.l.l.l.l.l.l.l.l.l.l.l.l.l.l.l.l.l.l.l.l.l.l.l.l.l.l.",
"l.l.l.l.l.l.l.l.l.l.l.l.l.l.l.l.l.l.l.l.l.l.l.l.l.l.l.l.l.l.l.l.l.l.l.l.l.l.l.l.l.l.l.l.l.l.l.l.l.l.l.l.l.l.l.l.l.l.l.l.l.b.Y.M.",
"l.l.l.l.l.l.l.l.l.l.l.l.l.l.l.l.l.l.l.l.l.l.l.l.l.l.l.l.l.l.l.l.l.l.l.l.l.l.l.l.l.l.l.l.l.l.l.l.l.l.l.l.l.l.l.l.l.l.l.l.l.l.l.l.",
"l.l.l.l.l.l.l.l.l.l.l.l.l.l.l.l.l.l.l.l.l.l.l.l.l.l.l.l.l.l.l.l.l.l.l.l.l.l.l.l.l.l.l.l.l.l.l.l.l.l.l.l.l.l.l.l.l.l.l.l.l.l.l.l.",
"l.l.l.l.l.l.l.l.l.l.l.l.l.l.l.l.l.l.l.l.l.l.l.l.l.l.l.l.l.l.l.l.l.l.l.l.l.l.l.l.l.l.l.l.l.l.l.l.l.l.l.l.l.l.l.l.l.l.l.l.l.l.l.l.",
"l.l.l.M.l.l.l.l.l.M.l.l.l.l.l.l.l.l.l.l.l.l.l.l.l.M.l.l.l.l.l.M.l.l.l.l.l.l.l.l.l.l.l.l.l.l.l.l.l.l.l.l.l.l.l.l.l.l.l.l.l.l.l.l."
};
